<svg xmlns="http://www.w3.org/2000/svg" viewBox="0 0 1895 953" preserveAspectRatio="xMidYMid" width="1895" height="953" xmlns:xlink="http://www.w3.org/1999/xlink" style="shape-rendering:auto;display:block;background-position-x:0%;background-position-y:0%;background-size:auto;background-origin:padding-box;background-clip:border-box;background:scroll rgb(2, 18, 39) none  repeat;width:1895px;height:953px;;animation:none"><g><path stroke-width="2" stroke-opacity="0" stroke="rgb(255, 0, 102)" fill="none" d="M 0 375 C 316 375 632 825 948 825 C 1264 825 1580 375 1896 375 C 2212 375 2528 825 2844 825 C 3160 825 3476 375 3792 375" transform="matrix(1,0,0,1,0,0)" style="fill:none;stroke:rgb(255, 0, 102);transform:matrix(1, 0, 0, 1, 0, 0);;animation:none"></path>
<path stroke-width="2" stroke-opacity="0" stroke="rgb(255, 0, 102)" fill="none" d="M 0 375.072 C 316 375.072 632 824.928 948 824.928 C 1264 824.928 1580 375.072 1896 375.072 C 2212 375.072 2528 824.928 2844 824.928 C 3160 824.928 3476 375.072 3792 375.072" transform="matrix(1,0,0,1,-10.359017372131348,0)" style="fill:none;stroke:rgb(255, 0, 102);transform:matrix(1, 0, 0, 1, -10.359, 0);;animation:none"></path>
<path stroke-width="2" stroke-opacity="0" stroke="rgb(254, 1, 102)" fill="none" d="M 0 375.293 C 316 375.293 632 824.707 948 824.707 C 1264 824.707 1580 375.293 1896 375.293 C 2212 375.293 2528 824.707 2844 824.707 C 3160 824.707 3476 375.293 3792 375.293" transform="matrix(1,0,0,1,-20.718509674072266,0)" style="fill:none;stroke:rgb(254, 1, 102);transform:matrix(1, 0, 0, 1, -20.7185, 0);;animation:none"></path>
<path stroke-width="2" stroke-opacity="0" stroke="rgb(254, 1, 103)" fill="none" d="M 0 375.665 C 316 375.665 632 824.335 948 824.335 C 1264 824.335 1580 375.665 1896 375.665 C 2212 375.665 2528 824.335 2844 824.335 C 3160 824.335 3476 375.665 3792 375.665" transform="matrix(1,0,0,1,-31.078001022338867,0)" style="fill:none;stroke:rgb(254, 1, 103);transform:matrix(1, 0, 0, 1, -31.078, 0);;animation:none"></path>
<path stroke-width="2" stroke-opacity="0" stroke="rgb(253, 2, 104)" fill="none" d="M 0 376.194 C 316 376.194 632 823.806 948 823.806 C 1264 823.806 1580 376.194 1896 376.194 C 2212 376.194 2528 823.806 2844 823.806 C 3160 823.806 3476 376.194 3792 376.194" transform="matrix(1,0,0,1,-41.43701934814453,0)" style="fill:none;stroke:rgb(253, 2, 104);transform:matrix(1, 0, 0, 1, -41.437, 0);;animation:none"></path>
<path stroke-width="2" stroke-opacity="0" stroke="rgb(251, 4, 105)" fill="none" d="M 0 376.884 C 316 376.884 632 823.116 948 823.116 C 1264 823.116 1580 376.884 1896 376.884 C 2212 376.884 2528 823.116 2844 823.116 C 3160 823.116 3476 376.884 3792 376.884" transform="matrix(1,0,0,1,-51.7965087890625,0)" style="fill:none;stroke:rgb(251, 4, 105);transform:matrix(1, 0, 0, 1, -51.7965, 0);;animation:none"></path>
<path stroke-width="2" stroke-opacity="0" stroke="rgb(250, 5, 106)" fill="none" d="M 0 377.741 C 316 377.741 632 822.259 948 822.259 C 1264 822.259 1580 377.741 1896 377.741 C 2212 377.741 2528 822.259 2844 822.259 C 3160 822.259 3476 377.741 3792 377.741" transform="matrix(1,0,0,1,-62.156002044677734,0)" style="fill:none;stroke:rgb(250, 5, 106);transform:matrix(1, 0, 0, 1, -62.156, 0);;animation:none"></path>
<path stroke-width="2" stroke-opacity="0" stroke="rgb(248, 7, 108)" fill="none" d="M 0 378.769 C 316 378.769 632 821.231 948 821.231 C 1264 821.231 1580 378.769 1896 378.769 C 2212 378.769 2528 821.231 2844 821.231 C 3160 821.231 3476 378.769 3792 378.769" transform="matrix(1,0,0,1,-72.5150146484375,0)" style="fill:none;stroke:rgb(248, 7, 108);transform:matrix(1, 0, 0, 1, -72.515, 0);;animation:none"></path>
<path stroke-width="2" stroke-opacity="0" stroke="rgb(245, 10, 109)" fill="none" d="M 0 379.974 C 316 379.974 632 820.026 948 820.026 C 1264 820.026 1580 379.974 1896 379.974 C 2212 379.974 2528 820.026 2844 820.026 C 3160 820.026 3476 379.974 3792 379.974" transform="matrix(1,0,0,1,-82.87451171875,0)" style="fill:none;stroke:rgb(245, 10, 109);transform:matrix(1, 0, 0, 1, -82.8745, 0);;animation:none"></path>
<path stroke-width="2" stroke-opacity="0" stroke="rgb(242, 13, 112)" fill="none" d="M 0 381.361 C 316 381.361 632 818.639 948 818.639 C 1264 818.639 1580 381.361 1896 381.361 C 2212 381.361 2528 818.639 2844 818.639 C 3160 818.639 3476 381.361 3792 381.361" transform="matrix(1,0,0,1,-93.23399353027344,0)" style="fill:none;stroke:rgb(242, 13, 112);transform:matrix(1, 0, 0, 1, -93.234, 0);;animation:none"></path>
<path stroke-width="2" stroke-opacity="0" stroke="rgb(239, 16, 114)" fill="none" d="M 0 382.936 C 316 382.936 632 817.064 948 817.064 C 1264 817.064 1580 382.936 1896 382.936 C 2212 382.936 2528 817.064 2844 817.064 C 3160 817.064 3476 382.936 3792 382.936" transform="matrix(1,0,0,1,-103.593017578125,0)" style="fill:none;stroke:rgb(239, 16, 114);transform:matrix(1, 0, 0, 1, -103.593, 0);;animation:none"></path>
<path stroke-width="2" stroke-opacity="0" stroke="rgb(235, 20, 117)" fill="none" d="M 0 384.704 C 316 384.704 632 815.296 948 815.296 C 1264 815.296 1580 384.704 1896 384.704 C 2212 384.704 2528 815.296 2844 815.296 C 3160 815.296 3476 384.704 3792 384.704" transform="matrix(1,0,0,1,-113.95250701904297,0)" style="fill:none;stroke:rgb(235, 20, 117);transform:matrix(1, 0, 0, 1, -113.953, 0);;animation:none"></path>
<path stroke-width="2" stroke-opacity="0" stroke="rgb(231, 24, 120)" fill="none" d="M 0 386.672 C 316 386.672 632 813.328 948 813.328 C 1264 813.328 1580 386.672 1896 386.672 C 2212 386.672 2528 813.328 2844 813.328 C 3160 813.328 3476 386.672 3792 386.672" transform="matrix(1,0,0,1,-124.31200408935547,0)" style="fill:none;stroke:rgb(231, 24, 120);transform:matrix(1, 0, 0, 1, -124.312, 0);;animation:none"></path>
<path stroke-width="2" stroke-opacity="0" stroke="rgb(226, 29, 124)" fill="none" d="M 0 388.845 C 316 388.845 632 811.155 948 811.155 C 1264 811.155 1580 388.845 1896 388.845 C 2212 388.845 2528 811.155 2844 811.155 C 3160 811.155 3476 388.845 3792 388.845" transform="matrix(1,0,0,1,-134.6710205078125,0)" style="fill:none;stroke:rgb(226, 29, 124);transform:matrix(1, 0, 0, 1, -134.671, 0);;animation:none"></path>
<path stroke-width="2" stroke-opacity="0" stroke="rgb(221, 34, 128)" fill="none" d="M 0 391.229 C 316 391.229 632 808.771 948 808.771 C 1264 808.771 1580 391.229 1896 391.229 C 2212 391.229 2528 808.771 2844 808.771 C 3160 808.771 3476 391.229 3792 391.229" transform="matrix(1,0,0,1,-145.03050231933594,0)" style="fill:none;stroke:rgb(221, 34, 128);transform:matrix(1, 0, 0, 1, -145.031, 0);;animation:none"></path>
<path stroke-width="2" stroke-opacity="0" stroke="rgb(215, 40, 132)" fill="none" d="M 0 393.832 C 316 393.832 632 806.168 948 806.168 C 1264 806.168 1580 393.832 1896 393.832 C 2212 393.832 2528 806.168 2844 806.168 C 3160 806.168 3476 393.832 3792 393.832" transform="matrix(1,0,0,1,-155.38999938964844,0)" style="fill:none;stroke:rgb(215, 40, 132);transform:matrix(1, 0, 0, 1, -155.39, 0);;animation:none"></path>
<path stroke-width="2" stroke-opacity="0" stroke="rgb(209, 46, 137)" fill="none" d="M 0 396.659 C 316 396.659 632 803.341 948 803.341 C 1264 803.341 1580 396.659 1896 396.659 C 2212 396.659 2528 803.341 2844 803.341 C 3160 803.341 3476 396.659 3792 396.659" transform="matrix(1,0,0,1,-165.7490234375,0)" style="fill:none;stroke:rgb(209, 46, 137);transform:matrix(1, 0, 0, 1, -165.749, 0);;animation:none"></path>
<path stroke-width="2" stroke-opacity="0" stroke="rgb(202, 53, 142)" fill="none" d="M 0 399.717 C 316 399.717 632 800.283 948 800.283 C 1264 800.283 1580 399.717 1896 399.717 C 2212 399.717 2528 800.283 2844 800.283 C 3160 800.283 3476 399.717 3792 399.717" transform="matrix(1,0,0,1,-176.1085205078125,0)" style="fill:none;stroke:rgb(202, 53, 142);transform:matrix(1, 0, 0, 1, -176.109, 0);;animation:none"></path>
<path stroke-width="2" stroke-opacity="0" stroke="rgb(194, 61, 148)" fill="none" d="M 0 403.012 C 316 403.012 632 796.988 948 796.988 C 1264 796.988 1580 403.012 1896 403.012 C 2212 403.012 2528 796.988 2844 796.988 C 3160 796.988 3476 403.012 3792 403.012" transform="matrix(1,0,0,1,-186.46798706054688,0)" style="fill:none;stroke:rgb(194, 61, 148);transform:matrix(1, 0, 0, 1, -186.468, 0);;animation:none"></path>
<path stroke-width="2" stroke-opacity="0" stroke="rgb(186, 69, 153)" fill="none" d="M 0 406.552 C 316 406.552 632 793.448 948 793.448 C 1264 793.448 1580 406.552 1896 406.552 C 2212 406.552 2528 793.448 2844 793.448 C 3160 793.448 3476 406.552 3792 406.552" transform="matrix(1,0,0,1,-196.8270263671875,0)" style="fill:none;stroke:rgb(186, 69, 153);transform:matrix(1, 0, 0, 1, -196.827, 0);;animation:none"></path>
<path stroke-width="2" stroke-opacity="0" stroke="rgb(178, 77, 160)" fill="none" d="M 0 410.342 C 316 410.342 632 789.658 948 789.658 C 1264 789.658 1580 410.342 1896 410.342 C 2212 410.342 2528 789.658 2844 789.658 C 3160 789.658 3476 410.342 3792 410.342" transform="matrix(1,0,0,1,-207.18650817871094,0)" style="fill:none;stroke:rgb(178, 77, 160);transform:matrix(1, 0, 0, 1, -207.187, 0);;animation:none"></path>
<path stroke-width="2" stroke-opacity="0" stroke="rgb(170, 85, 166)" fill="none" d="M 0 414.39 C 316 414.39 632 785.61 948 785.61 C 1264 785.61 1580 414.39 1896 414.39 C 2212 414.39 2528 785.61 2844 785.61 C 3160 785.61 3476 414.39 3792 414.39" transform="matrix(1,0,0,1,-217.54598999023438,0)" style="fill:none;stroke:rgb(170, 85, 166);transform:matrix(1, 0, 0, 1, -217.546, 0);;animation:none"></path>
<path stroke-width="2" stroke-opacity="0" stroke="rgb(161, 94, 173)" fill="none" d="M 0 418.701 C 316 418.701 632 781.299 948 781.299 C 1264 781.299 1580 418.701 1896 418.701 C 2212 418.701 2528 781.299 2844 781.299 C 3160 781.299 3476 418.701 3792 418.701" transform="matrix(1,0,0,1,-227.90501403808594,0)" style="fill:none;stroke:rgb(161, 94, 173);transform:matrix(1, 0, 0, 1, -227.905, 0);;animation:none"></path>
<path stroke-width="2" stroke-opacity="0" stroke="rgb(152, 103, 179)" fill="none" d="M 0 423.282 C 316 423.282 632 776.718 948 776.718 C 1264 776.718 1580 423.282 1896 423.282 C 2212 423.282 2528 776.718 2844 776.718 C 3160 776.718 3476 423.282 3792 423.282" transform="matrix(1,0,0,1,-238.2645263671875,0)" style="fill:none;stroke:rgb(152, 103, 179);transform:matrix(1, 0, 0, 1, -238.265, 0);;animation:none"></path>
<path stroke-width="2" stroke-opacity="0" stroke="rgb(143, 112, 186)" fill="none" d="M 0 428.138 C 316 428.138 632 771.862 948 771.862 C 1264 771.862 1580 428.138 1896 428.138 C 2212 428.138 2528 771.862 2844 771.862 C 3160 771.862 3476 428.138 3792 428.138" transform="matrix(1,0,0,1,-248.62400817871094,0)" style="fill:none;stroke:rgb(143, 112, 186);transform:matrix(1, 0, 0, 1, -248.624, 0);;animation:none"></path>
<path stroke-width="2" stroke-opacity="0" stroke="rgb(134, 121, 193)" fill="none" d="M 0 433.275 C 316 433.275 632 766.725 948 766.725 C 1264 766.725 1580 433.275 1896 433.275 C 2212 433.275 2528 766.725 2844 766.725 C 3160 766.725 3476 433.275 3792 433.275" transform="matrix(1,0,0,1,-258.9830322265625,0)" style="fill:none;stroke:rgb(134, 121, 193);transform:matrix(1, 0, 0, 1, -258.983, 0);;animation:none"></path>
<path stroke-width="2" stroke-opacity="0" stroke="rgb(126, 129, 199)" fill="none" d="M 0 438.698 C 316 438.698 632 761.302 948 761.302 C 1264 761.302 1580 438.698 1896 438.698 C 2212 438.698 2528 761.302 2844 761.302 C 3160 761.302 3476 438.698 3792 438.698" transform="matrix(1,0,0,1,-269.3424987792969,0)" style="fill:none;stroke:rgb(126, 129, 199);transform:matrix(1, 0, 0, 1, -269.342, 0);;animation:none"></path>
<path stroke-width="2" stroke-opacity="0" stroke="rgb(117, 138, 205)" fill="none" d="M 0 444.411 C 316 444.411 632 755.589 948 755.589 C 1264 755.589 1580 444.411 1896 444.411 C 2212 444.411 2528 755.589 2844 755.589 C 3160 755.589 3476 444.411 3792 444.411" transform="matrix(1,0,0,1,-279.7019958496094,0)" style="fill:none;stroke:rgb(117, 138, 205);transform:matrix(1, 0, 0, 1, -279.702, 0);;animation:none"></path>
<path stroke-width="2" stroke-opacity="0" stroke="rgb(110, 145, 211)" fill="none" d="M 0 450.417 C 316 450.417 632 749.583 948 749.583 C 1264 749.583 1580 450.417 1896 450.417 C 2212 450.417 2528 749.583 2844 749.583 C 3160 749.583 3476 450.417 3792 450.417" transform="matrix(1,0,0,1,-290.0610046386719,0)" style="fill:none;stroke:rgb(110, 145, 211);transform:matrix(1, 0, 0, 1, -290.061, 0);;animation:none"></path>
<path stroke-width="2" stroke-opacity="0" stroke="rgb(102, 153, 216)" fill="none" d="M 0 456.719 C 316 456.719 632 743.281 948 743.281 C 1264 743.281 1580 456.719 1896 456.719 C 2212 456.719 2528 743.281 2844 743.281 C 3160 743.281 3476 456.719 3792 456.719" transform="matrix(1,0,0,1,-300.4205017089844,0)" style="fill:none;stroke:rgb(102, 153, 216);transform:matrix(1, 0, 0, 1, -300.421, 0);;animation:none"></path>
<path stroke-width="2" stroke-opacity="0" stroke="rgb(96, 159, 222)" fill="none" d="M 0 463.318 C 316 463.318 632 736.682 948 736.682 C 1264 736.682 1580 463.318 1896 463.318 C 2212 463.318 2528 736.682 2844 736.682 C 3160 736.682 3476 463.318 3792 463.318" transform="matrix(1,0,0,1,-310.7799987792969,0)" style="fill:none;stroke:rgb(96, 159, 222);transform:matrix(1, 0, 0, 1, -310.78, 0);;animation:none"></path>
<path stroke-width="2" stroke-opacity="0" stroke="rgb(89, 166, 226)" fill="none" d="M 0 470.213 C 316 470.213 632 729.787 948 729.787 C 1264 729.787 1580 470.213 1896 470.213 C 2212 470.213 2528 729.787 2844 729.787 C 3160 729.787 3476 470.213 3792 470.213" transform="matrix(1,0,0,1,-321.1390075683594,0)" style="fill:none;stroke:rgb(89, 166, 226);transform:matrix(1, 0, 0, 1, -321.139, 0);;animation:none"></path>
<path stroke-width="2" stroke-opacity="0" stroke="rgb(84, 171, 230)" fill="none" d="M 0 477.403 C 316 477.403 632 722.597 948 722.597 C 1264 722.597 1580 477.403 1896 477.403 C 2212 477.403 2528 722.597 2844 722.597 C 3160 722.597 3476 477.403 3792 477.403" transform="matrix(1,0,0,1,-331.4985046386719,0)" style="fill:none;stroke:rgb(84, 171, 230);transform:matrix(1, 0, 0, 1, -331.499, 0);;animation:none"></path>
<path stroke-width="2" stroke-opacity="0" stroke="rgb(79, 176, 234)" fill="none" d="M 0 484.884 C 316 484.884 632 715.116 948 715.116 C 1264 715.116 1580 484.884 1896 484.884 C 2212 484.884 2528 715.116 2844 715.116 C 3160 715.116 3476 484.884 3792 484.884" transform="matrix(1,0,0,1,-341.8580017089844,0)" style="fill:none;stroke:rgb(79, 176, 234);transform:matrix(1, 0, 0, 1, -341.858, 0);;animation:none"></path>
<path stroke-width="2" stroke-opacity="0" stroke="rgb(74, 181, 238)" fill="none" d="M 0 492.65 C 316 492.65 632 707.35 948 707.35 C 1264 707.35 1580 492.65 1896 492.65 C 2212 492.65 2528 707.35 2844 707.35 C 3160 707.35 3476 492.65 3792 492.65" transform="matrix(1,0,0,1,-352.217041015625,0)" style="fill:none;stroke:rgb(74, 181, 238);transform:matrix(1, 0, 0, 1, -352.217, 0);;animation:none"></path>
<path stroke-width="2" stroke-opacity="0" stroke="rgb(70, 185, 241)" fill="none" d="M 0 500.694 C 316 500.694 632 699.306 948 699.306 C 1264 699.306 1580 500.694 1896 500.694 C 2212 500.694 2528 699.306 2844 699.306 C 3160 699.306 3476 500.694 3792 500.694" transform="matrix(1,0,0,1,-362.5765075683594,0)" style="fill:none;stroke:rgb(70, 185, 241);transform:matrix(1, 0, 0, 1, -362.577, 0);;animation:none"></path>
<path stroke-width="2" stroke-opacity="0" stroke="rgb(66, 189, 244)" fill="none" d="M 0 509.005 C 316 509.005 632 690.995 948 690.995 C 1264 690.995 1580 509.005 1896 509.005 C 2212 509.005 2528 690.995 2844 690.995 C 3160 690.995 3476 509.005 3792 509.005" transform="matrix(1,0,0,1,-372.93597412109375,0)" style="fill:none;stroke:rgb(66, 189, 244);transform:matrix(1, 0, 0, 1, -372.936, 0);;animation:none"></path>
<path stroke-width="2" stroke-opacity="0" stroke="rgb(63, 192, 246)" fill="none" d="M 0 517.57 C 316 517.57 632 682.43 948 682.43 C 1264 682.43 1580 517.57 1896 517.57 C 2212 517.57 2528 682.43 2844 682.43 C 3160 682.43 3476 517.57 3792 517.57" transform="matrix(1,0,0,1,-383.2950134277344,0)" style="fill:none;stroke:rgb(63, 192, 246);transform:matrix(1, 0, 0, 1, -383.295, 0);;animation:none"></path>
<path stroke-width="2" stroke-opacity="0" stroke="rgb(60, 195, 248)" fill="none" d="M 0 526.374 C 316 526.374 632 673.626 948 673.626 C 1264 673.626 1580 526.374 1896 526.374 C 2212 526.374 2528 673.626 2844 673.626 C 3160 673.626 3476 526.374 3792 526.374" transform="matrix(1,0,0,1,-393.6545104980469,0)" style="fill:none;stroke:rgb(60, 195, 248);transform:matrix(1, 0, 0, 1, -393.655, 0);;animation:none"></path>
<path stroke-width="2" stroke-opacity="0" stroke="rgb(58, 197, 250)" fill="none" d="M 0 535.399 C 316 535.399 632 664.601 948 664.601 C 1264 664.601 1580 535.399 1896 535.399 C 2212 535.399 2528 664.601 2844 664.601 C 3160 664.601 3476 535.399 3792 535.399" transform="matrix(1,0,0,1,-404.0140075683594,0)" style="fill:none;stroke:rgb(58, 197, 250);transform:matrix(1, 0, 0, 1, -404.014, 0);;animation:none"></path>
<path stroke-width="2" stroke-opacity="0" stroke="rgb(56, 199, 251)" fill="none" d="M 0 544.621 C 316 544.621 632 655.379 948 655.379 C 1264 655.379 1580 544.621 1896 544.621 C 2212 544.621 2528 655.379 2844 655.379 C 3160 655.379 3476 544.621 3792 544.621" transform="matrix(1,0,0,1,-414.3730163574219,0)" style="fill:none;stroke:rgb(56, 199, 251);transform:matrix(1, 0, 0, 1, -414.373, 0);;animation:none"></path>
<path stroke-width="2" stroke-opacity="0" stroke="rgb(54, 201, 253)" fill="none" d="M 0 554.02 C 316 554.02 632 645.98 948 645.98 C 1264 645.98 1580 554.02 1896 554.02 C 2212 554.02 2528 645.98 2844 645.98 C 3160 645.98 3476 554.02 3792 554.02" transform="matrix(1,0,0,1,-424.7325134277344,0)" style="fill:none;stroke:rgb(54, 201, 253);transform:matrix(1, 0, 0, 1, -424.733, 0);;animation:none"></path>
<path stroke-width="2" stroke-opacity="0" stroke="rgb(53, 202, 254)" fill="none" d="M 0 563.566 C 316 563.566 632 636.434 948 636.434 C 1264 636.434 1580 563.566 1896 563.566 C 2212 563.566 2528 636.434 2844 636.434 C 3160 636.434 3476 563.566 3792 563.566" transform="matrix(1,0,0,1,-435.09197998046875,0)" style="fill:none;stroke:rgb(53, 202, 254);transform:matrix(1, 0, 0, 1, -435.092, 0);;animation:none"></path>
<path stroke-width="2" stroke-opacity="0" stroke="rgb(52, 203, 254)" fill="none" d="M 0 573.233 C 316 573.233 632 626.767 948 626.767 C 1264 626.767 1580 573.233 1896 573.233 C 2212 573.233 2528 626.767 2844 626.767 C 3160 626.767 3476 573.233 3792 573.233" transform="matrix(1,0,0,1,-445.4510192871094,0)" style="fill:none;stroke:rgb(52, 203, 254);transform:matrix(1, 0, 0, 1, -445.451, 0);;animation:none"></path>
<path stroke-width="2" stroke-opacity="0" stroke="rgb(51, 204, 255)" fill="none" d="M 0 582.989 C 316 582.989 632 617.011 948 617.011 C 1264 617.011 1580 582.989 1896 582.989 C 2212 582.989 2528 617.011 2844 617.011 C 3160 617.011 3476 582.989 3792 582.989" transform="matrix(1,0,0,1,-455.8105163574219,0)" style="fill:none;stroke:rgb(51, 204, 255);transform:matrix(1, 0, 0, 1, -455.811, 0);;animation:none"></path>
<path stroke-width="2" stroke-opacity="0.023255813953488372" stroke="rgb(51, 204, 255)" fill="none" d="M 0 592.802 C 316 592.802 632 607.198 948 607.198 C 1264 607.198 1580 592.802 1896 592.802 C 2212 592.802 2528 607.198 2844 607.198 C 3160 607.198 3476 592.802 3792 592.802" transform="matrix(1,0,0,1,-466.1700134277344,0)" style="fill:none;stroke:rgb(51, 204, 255);transform:matrix(1, 0, 0, 1, -466.17, 0);;animation:none"></path>
<path stroke-width="2" stroke-opacity="0.046511627906976744" stroke="rgb(51, 204, 255)" fill="none" d="M 0 602.64 C 316 602.64 632 597.36 948 597.36 C 1264 597.36 1580 602.64 1896 602.64 C 2212 602.64 2528 597.36 2844 597.36 C 3160 597.36 3476 602.64 3792 602.64" transform="matrix(1,0,0,1,-476.529052734375,0)" style="fill:none;stroke:rgb(51, 204, 255);transform:matrix(1, 0, 0, 1, -476.529, 0);;animation:none"></path>
<path stroke-width="2" stroke-opacity="0.06976744186046512" stroke="rgb(51, 204, 255)" fill="none" d="M 0 612.469 C 316 612.469 632 587.532 948 587.532 C 1264 587.532 1580 612.469 1896 612.469 C 2212 612.469 2528 587.532 2844 587.532 C 3160 587.532 3476 612.469 3792 612.469" transform="matrix(1,0,0,1,-486.88848876953125,0)" style="fill:none;stroke:rgb(51, 204, 255);transform:matrix(1, 0, 0, 1, -486.888, 0);;animation:none"></path>
<path stroke-width="2" stroke-opacity="0.09302325581395349" stroke="rgb(52, 203, 254)" fill="none" d="M 0 622.255 C 316 622.255 632 577.745 948 577.745 C 1264 577.745 1580 622.255 1896 622.255 C 2212 622.255 2528 577.745 2844 577.745 C 3160 577.745 3476 622.255 3792 622.255" transform="matrix(1,0,0,1,-497.2480163574219,0)" style="fill:none;stroke:rgb(52, 203, 254);transform:matrix(1, 0, 0, 1, -497.248, 0);;animation:none"></path>
<path stroke-width="2" stroke-opacity="0.11627906976744186" stroke="rgb(52, 203, 254)" fill="none" d="M 0 631.967 C 316 631.967 632 568.033 948 568.033 C 1264 568.033 1580 631.967 1896 631.967 C 2212 631.967 2528 568.033 2844 568.033 C 3160 568.033 3476 631.967 3792 631.967" transform="matrix(1,0,0,1,-507.60699462890625,0)" style="fill:none;stroke:rgb(52, 203, 254);transform:matrix(1, 0, 0, 1, -507.607, 0);;animation:none"></path>
<path stroke-width="2" stroke-opacity="0.13953488372093023" stroke="rgb(54, 201, 253)" fill="none" d="M 0 641.573 C 316 641.573 632 558.427 948 558.427 C 1264 558.427 1580 641.573 1896 641.573 C 2212 641.573 2528 558.427 2844 558.427 C 3160 558.427 3476 641.573 3792 641.573" transform="matrix(1,0,0,1,-517.9664916992188,0)" style="fill:none;stroke:rgb(54, 201, 253);transform:matrix(1, 0, 0, 1, -517.966, 0);;animation:none"></path>
<path stroke-width="2" stroke-opacity="0.16279069767441862" stroke="rgb(55, 200, 252)" fill="none" d="M 0 651.043 C 316 651.043 632 548.957 948 548.957 C 1264 548.957 1580 651.043 1896 651.043 C 2212 651.043 2528 548.957 2844 548.957 C 3160 548.957 3476 651.043 3792 651.043" transform="matrix(1,0,0,1,-528.3260498046875,0)" style="fill:none;stroke:rgb(55, 200, 252);transform:matrix(1, 0, 0, 1, -528.326, 0);;animation:none"></path>
<path stroke-width="2" stroke-opacity="0.18604651162790697" stroke="rgb(57, 198, 251)" fill="none" d="M 0 660.35 C 316 660.35 632 539.65 948 539.65 C 1264 539.65 1580 660.35 1896 660.35 C 2212 660.35 2528 539.65 2844 539.65 C 3160 539.65 3476 660.35 3792 660.35" transform="matrix(1,0,0,1,-538.6849975585938,0)" style="fill:none;stroke:rgb(57, 198, 251);transform:matrix(1, 0, 0, 1, -538.685, 0);;animation:none"></path>
<path stroke-width="2" stroke-opacity="0.20930232558139536" stroke="rgb(59, 196, 249)" fill="none" d="M 0 669.469 C 316 669.469 632 530.53 948 530.53 C 1264 530.53 1580 669.469 1896 669.469 C 2212 669.469 2528 530.53 2844 530.53 C 3160 530.53 3476 669.469 3792 669.469" transform="matrix(1,0,0,1,-549.0445556640625,0)" style="fill:none;stroke:rgb(59, 196, 249);transform:matrix(1, 0, 0, 1, -549.045, 0);;animation:none"></path>
<path stroke-width="2" stroke-opacity="0.23255813953488372" stroke="rgb(62, 193, 247)" fill="none" d="M 0 678.378 C 316 678.378 632 521.622 948 521.622 C 1264 521.622 1580 678.378 1896 678.378 C 2212 678.378 2528 521.622 2844 521.622 C 3160 521.622 3476 678.378 3792 678.378" transform="matrix(1,0,0,1,-559.4039916992188,0)" style="fill:none;stroke:rgb(62, 193, 247);transform:matrix(1, 0, 0, 1, -559.404, 0);;animation:none"></path>
<path stroke-width="2" stroke-opacity="0.2558139534883721" stroke="rgb(65, 190, 245)" fill="none" d="M 0 687.056 C 316 687.056 632 512.944 948 512.944 C 1264 512.944 1580 687.056 1896 687.056 C 2212 687.056 2528 512.944 2844 512.944 C 3160 512.944 3476 687.056 3792 687.056" transform="matrix(1,0,0,1,-569.7630615234375,0)" style="fill:none;stroke:rgb(65, 190, 245);transform:matrix(1, 0, 0, 1, -569.763, 0);;animation:none"></path>
<path stroke-width="2" stroke-opacity="0.27906976744186046" stroke="rgb(68, 187, 242)" fill="none" d="M 0 695.487 C 316 695.487 632 504.513 948 504.513 C 1264 504.513 1580 695.487 1896 695.487 C 2212 695.487 2528 504.513 2844 504.513 C 3160 504.513 3476 695.487 3792 695.487" transform="matrix(1,0,0,1,-580.1224975585938,0)" style="fill:none;stroke:rgb(68, 187, 242);transform:matrix(1, 0, 0, 1, -580.122, 0);;animation:none"></path>
<path stroke-width="2" stroke-opacity="0.3023255813953488" stroke="rgb(72, 183, 239)" fill="none" d="M 0 703.656 C 316 703.656 632 496.344 948 496.344 C 1264 496.344 1580 703.656 1896 703.656 C 2212 703.656 2528 496.344 2844 496.344 C 3160 496.344 3476 703.656 3792 703.656" transform="matrix(1,0,0,1,-590.4819946289062,0)" style="fill:none;stroke:rgb(72, 183, 239);transform:matrix(1, 0, 0, 1, -590.482, 0);;animation:none"></path>
<path stroke-width="2" stroke-opacity="0.32558139534883723" stroke="rgb(76, 179, 236)" fill="none" d="M 0 711.552 C 316 711.552 632 488.448 948 488.448 C 1264 488.448 1580 711.552 1896 711.552 C 2212 711.552 2528 488.448 2844 488.448 C 3160 488.448 3476 711.552 3792 711.552" transform="matrix(1,0,0,1,-600.8410034179688,0)" style="fill:none;stroke:rgb(76, 179, 236);transform:matrix(1, 0, 0, 1, -600.841, 0);;animation:none"></path>
<path stroke-width="2" stroke-opacity="0.3488372093023256" stroke="rgb(81, 174, 232)" fill="none" d="M 0 719.166 C 316 719.166 632 480.834 948 480.834 C 1264 480.834 1580 719.166 1896 719.166 C 2212 719.166 2528 480.834 2844 480.834 C 3160 480.834 3476 719.166 3792 719.166" transform="matrix(1,0,0,1,-611.2005004882812,0)" style="fill:none;stroke:rgb(81, 174, 232);transform:matrix(1, 0, 0, 1, -611.201, 0);;animation:none"></path>
<path stroke-width="2" stroke-opacity="0.37209302325581395" stroke="rgb(87, 168, 228)" fill="none" d="M 0 726.492 C 316 726.492 632 473.508 948 473.508 C 1264 473.508 1580 726.492 1896 726.492 C 2212 726.492 2528 473.508 2844 473.508 C 3160 473.508 3476 726.492 3792 726.492" transform="matrix(1,0,0,1,-621.5599975585938,0)" style="fill:none;stroke:rgb(87, 168, 228);transform:matrix(1, 0, 0, 1, -621.56, 0);;animation:none"></path>
<path stroke-width="2" stroke-opacity="0.3953488372093023" stroke="rgb(93, 162, 224)" fill="none" d="M 0 733.523 C 316 733.523 632 466.477 948 466.477 C 1264 466.477 1580 733.523 1896 733.523 C 2212 733.523 2528 466.477 2844 466.477 C 3160 466.477 3476 733.523 3792 733.523" transform="matrix(1,0,0,1,-631.9190063476562,0)" style="fill:none;stroke:rgb(93, 162, 224);transform:matrix(1, 0, 0, 1, -631.919, 0);;animation:none"></path>
<path stroke-width="2" stroke-opacity="0.4186046511627907" stroke="rgb(99, 156, 219)" fill="none" d="M 0 740.26 C 316 740.26 632 459.74 948 459.74 C 1264 459.74 1580 740.26 1896 740.26 C 2212 740.26 2528 459.74 2844 459.74 C 3160 459.74 3476 740.26 3792 740.26" transform="matrix(1,0,0,1,-642.2785034179688,0)" style="fill:none;stroke:rgb(99, 156, 219);transform:matrix(1, 0, 0, 1, -642.279, 0);;animation:none"></path>
<path stroke-width="2" stroke-opacity="0.4418604651162791" stroke="rgb(106, 149, 214)" fill="none" d="M 0 746.699 C 316 746.699 632 453.301 948 453.301 C 1264 453.301 1580 746.699 1896 746.699 C 2212 746.699 2528 453.301 2844 453.301 C 3160 453.301 3476 746.699 3792 746.699" transform="matrix(1,0,0,1,-652.6380004882812,0)" style="fill:none;stroke:rgb(106, 149, 214);transform:matrix(1, 0, 0, 1, -652.638, 0);;animation:none"></path>
<path stroke-width="2" stroke-opacity="0.46511627906976744" stroke="rgb(114, 141, 208)" fill="none" d="M 0 752.842 C 316 752.842 632 447.158 948 447.158 C 1264 447.158 1580 752.842 1896 752.842 C 2212 752.842 2528 447.158 2844 447.158 C 3160 447.158 3476 752.842 3792 752.842" transform="matrix(1,0,0,1,-662.9970092773438,0)" style="fill:none;stroke:rgb(114, 141, 208);transform:matrix(1, 0, 0, 1, -662.997, 0);;animation:none"></path>
<path stroke-width="2" stroke-opacity="0.4883720930232558" stroke="rgb(122, 133, 202)" fill="none" d="M 0 758.69 C 316 758.69 632 441.31 948 441.31 C 1264 441.31 1580 758.69 1896 758.69 C 2212 758.69 2528 441.31 2844 441.31 C 3160 441.31 3476 758.69 3792 758.69" transform="matrix(1,0,0,1,-673.3565063476562,0)" style="fill:none;stroke:rgb(122, 133, 202);transform:matrix(1, 0, 0, 1, -673.357, 0);;animation:none"></path>
<path stroke-width="2" stroke-opacity="0.5116279069767442" stroke="rgb(130, 125, 196)" fill="none" d="M 0 764.247 C 316 764.247 632 435.753 948 435.753 C 1264 435.753 1580 764.247 1896 764.247 C 2212 764.247 2528 435.753 2844 435.753 C 3160 435.753 3476 764.247 3792 764.247" transform="matrix(1,0,0,1,-683.7160034179688,0)" style="fill:none;stroke:rgb(130, 125, 196);transform:matrix(1, 0, 0, 1, -683.716, 0);;animation:none"></path>
<path stroke-width="2" stroke-opacity="0.5348837209302325" stroke="rgb(139, 116, 189)" fill="none" d="M 0 769.516 C 316 769.516 632 430.484 948 430.484 C 1264 430.484 1580 769.516 1896 769.516 C 2212 769.516 2528 430.484 2844 430.484 C 3160 430.484 3476 769.516 3792 769.516" transform="matrix(1,0,0,1,-694.0750122070312,0)" style="fill:none;stroke:rgb(139, 116, 189);transform:matrix(1, 0, 0, 1, -694.075, 0);;animation:none"></path>
<path stroke-width="2" stroke-opacity="0.5581395348837209" stroke="rgb(148, 107, 182)" fill="none" d="M 0 774.502 C 316 774.502 632 425.498 948 425.498 C 1264 425.498 1580 774.502 1896 774.502 C 2212 774.502 2528 425.498 2844 425.498 C 3160 425.498 3476 774.502 3792 774.502" transform="matrix(1,0,0,1,-704.4345092773438,0)" style="fill:none;stroke:rgb(148, 107, 182);transform:matrix(1, 0, 0, 1, -704.435, 0);;animation:none"></path>
<path stroke-width="2" stroke-opacity="0.5813953488372093" stroke="rgb(157, 98, 176)" fill="none" d="M 0 779.21 C 316 779.21 632 420.79 948 420.79 C 1264 420.79 1580 779.21 1896 779.21 C 2212 779.21 2528 420.79 2844 420.79 C 3160 420.79 3476 779.21 3792 779.21" transform="matrix(1,0,0,1,-714.7940063476562,0)" style="fill:none;stroke:rgb(157, 98, 176);transform:matrix(1, 0, 0, 1, -714.794, 0);;animation:none"></path>
<path stroke-width="2" stroke-opacity="0.6046511627906976" stroke="rgb(165, 90, 169)" fill="none" d="M 0 783.645 C 316 783.645 632 416.355 948 416.355 C 1264 416.355 1580 783.645 1896 783.645 C 2212 783.645 2528 416.355 2844 416.355 C 3160 416.355 3476 783.645 3792 783.645" transform="matrix(1,0,0,1,-725.1530151367188,0)" style="fill:none;stroke:rgb(165, 90, 169);transform:matrix(1, 0, 0, 1, -725.153, 0);;animation:none"></path>
<path stroke-width="2" stroke-opacity="0.627906976744186" stroke="rgb(174, 81, 163)" fill="none" d="M 0 787.814 C 316 787.814 632 412.186 948 412.186 C 1264 412.186 1580 787.814 1896 787.814 C 2212 787.814 2528 412.186 2844 412.186 C 3160 412.186 3476 787.814 3792 787.814" transform="matrix(1,0,0,1,-735.5125122070312,0)" style="fill:none;stroke:rgb(174, 81, 163);transform:matrix(1, 0, 0, 1, -735.513, 0);;animation:none"></path>
<path stroke-width="2" stroke-opacity="0.6511627906976745" stroke="rgb(183, 72, 156)" fill="none" d="M 0 791.723 C 316 791.723 632 408.277 948 408.277 C 1264 408.277 1580 791.723 1896 791.723 C 2212 791.723 2528 408.277 2844 408.277 C 3160 408.277 3476 791.723 3792 791.723" transform="matrix(1,0,0,1,-745.8719482421875,0)" style="fill:none;stroke:rgb(183, 72, 156);transform:matrix(1, 0, 0, 1, -745.872, 0);;animation:none"></path>
<path stroke-width="2" stroke-opacity="0.6744186046511628" stroke="rgb(191, 64, 150)" fill="none" d="M 0 795.378 C 316 795.378 632 404.622 948 404.622 C 1264 404.622 1580 795.378 1896 795.378 C 2212 795.378 2528 404.622 2844 404.622 C 3160 404.622 3476 795.378 3792 795.378" transform="matrix(1,0,0,1,-756.2310180664062,0)" style="fill:none;stroke:rgb(191, 64, 150);transform:matrix(1, 0, 0, 1, -756.231, 0);;animation:none"></path>
<path stroke-width="2" stroke-opacity="0.6976744186046512" stroke="rgb(198, 57, 145)" fill="none" d="M 0 798.786 C 316 798.786 632 401.214 948 401.214 C 1264 401.214 1580 798.786 1896 798.786 C 2212 798.786 2528 401.214 2844 401.214 C 3160 401.214 3476 798.786 3792 798.786" transform="matrix(1,0,0,1,-766.5904541015625,0)" style="fill:none;stroke:rgb(198, 57, 145);transform:matrix(1, 0, 0, 1, -766.59, 0);;animation:none"></path>
<g></g></g><!-- [ldio] generated by https://loading.io --></svg>