<svg xmlns="http://www.w3.org/2000/svg" viewBox="0 0 1912 962" preserveAspectRatio="xMidYMid" width="1912" height="962" xmlns:xlink="http://www.w3.org/1999/xlink" style="shape-rendering:auto;display:block;background-position-x:0%;background-position-y:0%;background-size:auto;background-origin:padding-box;background-clip:border-box;background:scroll rgb(12, 16, 34) none  repeat;width:1912px;height:962px;;animation:none"><g><g transform="matrix(1,0,0,1,0,0)" style="transform:matrix(1, 0, 0, 1, 0, 0);;animation:none"><path stroke-width="2" stroke-opacity="0" stroke="rgb(51, 204, 255)" fill="none" d="M 0 510 C 319 510 637 702 956 702 C 1275 702 1593 510 1912 510 C 2231 510 2549 702 2868 702 C 3187 702 3505 510 3824 510" transform="matrix(1,0,0,1,0,0)" style="fill:none;stroke:rgb(51, 204, 255);transform:matrix(1, 0, 0, 1, 0, 0);;animation:none"></path></g>
<g transform="matrix(0.9986295347545738,0.052335956242943835,-0.052335956242943835,0.9986295347545738,26.483759727483402,-49.37398038520428)" style="transform:matrix(0.99863, 0.052336, -0.052336, 0.99863, 26.4838, -49.374);;animation:none"><path stroke-width="2" stroke-opacity="0" stroke="rgb(51, 204, 255)" fill="none" d="M 0 510.017 C 319 510.017 637 701.984 956 701.984 C 1275 701.984 1593 510.017 1912 510.017 C 2231 510.017 2549 701.984 2868 701.984 C 3187 701.984 3505 510.017 3824 510.017" transform="matrix(1,0,0,1,-7.648000240325928,0)" style="fill:none;stroke:rgb(51, 204, 255);transform:matrix(1, 0, 0, 1, -7.648, 0);;animation:none"></path></g>
<g transform="matrix(0.9945218953682733,0.10452846326765347,-0.10452846326765347,0.9945218953682733,55.51525885967203,-97.29424255601623)" style="transform:matrix(0.994522, 0.104528, -0.104528, 0.994522, 55.5153, -97.2942);;animation:none"><path stroke-width="2" stroke-opacity="0" stroke="rgb(51, 204, 255)" fill="none" d="M 0 510.066 C 319 510.066 637 701.933 956 701.933 C 1275 701.933 1593 510.066 1912 510.066 C 2231 510.066 2549 701.933 2868 701.933 C 3187 701.933 3505 510.066 3824 510.066" transform="matrix(1,0,0,1,-15.296000480651855,0)" style="fill:none;stroke:rgb(51, 204, 255);transform:matrix(1, 0, 0, 1, -15.296, 0);;animation:none"></path></g>
<g transform="matrix(0.9876883405951378,0.15643446504023087,-0.15643446504023087,0.9876883405951378,87.01492407539934,-143.6294404047219)" style="transform:matrix(0.987688, 0.156434, -0.156434, 0.987688, 87.0149, -143.629);;animation:none"><path stroke-width="2" stroke-opacity="0" stroke="rgb(52, 203, 255)" fill="none" d="M 0 510.151 C 319 510.151 637 701.849 956 701.849 C 1275 701.849 1593 510.151 1912 510.151 C 2231 510.151 2549 701.849 2868 701.849 C 3187 701.849 3505 510.151 3824 510.151" transform="matrix(1,0,0,1,-22.944000244140625,0)" style="fill:none;stroke:rgb(52, 203, 255);transform:matrix(1, 0, 0, 1, -22.944, 0);;animation:none"></path></g>
<g transform="matrix(0.9781476007338057,0.20791169081775934,-0.20791169081775934,0.9781476007338057,120.8964169818239,-188.25257237473852)" style="transform:matrix(0.978148, 0.207912, -0.207912, 0.978148, 120.896, -188.253);;animation:none"><path stroke-width="2" stroke-opacity="0" stroke="rgb(52, 203, 254)" fill="none" d="M 0 510.27 C 319 510.27 637 701.73 956 701.73 C 1275 701.73 1593 510.27 1912 510.27 C 2231 510.27 2549 701.73 2868 701.73 C 3187 701.73 3505 510.27 3824 510.27" transform="matrix(1,0,0,1,-30.59200096130371,0)" style="fill:none;stroke:rgb(52, 203, 254);transform:matrix(1, 0, 0, 1, -30.592, 0);;animation:none"></path></g>
<g transform="matrix(0.9659258262890683,0.25881904510252074,-0.25881904510252074,0.9659258262890683,157.06687076196317,-231.0413295630517)" style="transform:matrix(0.965926, 0.258819, -0.258819, 0.965926, 157.067, -231.041);;animation:none"><path stroke-width="2" stroke-opacity="0" stroke="rgb(53, 202, 254)" fill="none" d="M 0 510.425 C 319 510.425 637 701.575 956 701.575 C 1275 701.575 1593 510.425 1912 510.425 C 2231 510.425 2549 701.575 2868 701.575 C 3187 701.575 3505 510.425 3824 510.425" transform="matrix(1,0,0,1,-38.23999786376953,0)" style="fill:none;stroke:rgb(53, 202, 254);transform:matrix(1, 0, 0, 1, -38.24, 0);;animation:none"></path></g>
<g transform="matrix(0.9510565162951535,0.3090169943749474,-0.3090169943749474,0.9510565162951535,195.42714471618297,-271.87843096041865)" style="transform:matrix(0.951057, 0.309017, -0.309017, 0.951057, 195.427, -271.878);;animation:none"><path stroke-width="2" stroke-opacity="0" stroke="rgb(54, 201, 253)" fill="none" d="M 0 510.616 C 319 510.616 637 701.384 956 701.384 C 1275 701.384 1593 510.616 1912 510.616 C 2231 510.616 2549 701.384 2868 701.384 C 3187 701.384 3505 510.616 3824 510.616" transform="matrix(1,0,0,1,-45.88800048828125,0)" style="fill:none;stroke:rgb(54, 201, 253);transform:matrix(1, 0, 0, 1, -45.888, 0);;animation:none"></path></g>
<g transform="matrix(0.9335804264972017,0.35836794954530027,-0.35836794954530027,0.9335804264972017,235.87209599996459,-310.6519449104611)" style="transform:matrix(0.93358, 0.358368, -0.358368, 0.93358, 235.872, -310.652);;animation:none"><path stroke-width="2" stroke-opacity="0" stroke="rgb(55, 200, 252)" fill="none" d="M 0 510.845 C 319 510.845 637 701.155 956 701.155 C 1275 701.155 1593 510.845 1912 510.845 C 2231 510.845 2549 701.155 2868 701.155 C 3187 701.155 3505 510.845 3824 510.845" transform="matrix(1,0,0,1,-53.53600311279297,0)" style="fill:none;stroke:rgb(55, 200, 252);transform:matrix(1, 0, 0, 1, -53.536, 0);;animation:none"></path></g>
<g transform="matrix(0.9135454576426009,0.4067366430758002,-0.4067366430758002,0.9135454576426009,278.29086781313345,-347.255595906556)" style="transform:matrix(0.913545, 0.406737, -0.406737, 0.913545, 278.291, -347.256);;animation:none"><path stroke-width="2" stroke-opacity="0" stroke="rgb(56, 199, 251)" fill="none" d="M 0 511.112 C 319 511.112 637 700.888 956 700.888 C 1275 700.888 1593 511.112 1912 511.112 C 2231 511.112 2549 700.888 2868 700.888 C 3187 700.888 3505 511.112 3824 511.112" transform="matrix(1,0,0,1,-61.18400192260742,0)" style="fill:none;stroke:rgb(56, 199, 251);transform:matrix(1, 0, 0, 1, -61.184, 0);;animation:none"></path></g>
<g transform="matrix(0.8910065241883679,0.45399049973954675,-0.45399049973954675,0.8910065241883679,322.5671932506423,-381.58905588561163)" style="transform:matrix(0.891007, 0.45399, -0.45399, 0.891007, 322.567, -381.589);;animation:none"><path stroke-width="2" stroke-opacity="0" stroke="rgb(57, 198, 250)" fill="none" d="M 0 511.417 C 319 511.417 637 700.583 956 700.583 C 1275 700.583 1593 511.417 1912 511.417 C 2231 511.417 2549 700.583 2868 700.583 C 3187 700.583 3505 511.417 3824 511.417" transform="matrix(1,0,0,1,-68.83200073242188,0)" style="fill:none;stroke:rgb(57, 198, 250);transform:matrix(1, 0, 0, 1, -68.832, 0);;animation:none"></path></g>
<g transform="matrix(0.8660254037844387,0.49999999999999994,-0.49999999999999994,0.8660254037844387,368.57971398207656,-413.558219220315)" style="transform:matrix(0.866025, 0.5, -0.5, 0.866025, 368.58, -413.558);;animation:none"><path stroke-width="2" stroke-opacity="0" stroke="rgb(59, 196, 249)" fill="none" d="M 0 511.763 C 319 511.763 637 700.237 956 700.237 C 1275 700.237 1593 511.763 1912 511.763 C 2231 511.763 2549 700.237 2868 700.237 C 3187 700.237 3505 511.763 3824 511.763" transform="matrix(1,0,0,1,-76.47999572753906,0)" style="fill:none;stroke:rgb(59, 196, 249);transform:matrix(1, 0, 0, 1, -76.48, 0);;animation:none"></path></g>
<g transform="matrix(0.838670567945424,0.5446390350150271,-0.5446390350150271,0.838670567945424,416.20231288640275,-443.07546065611484)" style="transform:matrix(0.838671, 0.544639, -0.544639, 0.838671, 416.202, -443.075);;animation:none"><path stroke-width="2" stroke-opacity="0" stroke="rgb(61, 194, 248)" fill="none" d="M 0 512.149 C 319 512.149 637 699.851 956 699.851 C 1275 699.851 1593 512.149 1912 512.149 C 2231 512.149 2549 699.851 2868 699.851 C 3187 699.851 3505 512.149 3824 512.149" transform="matrix(1,0,0,1,-84.12799835205078,0)" style="fill:none;stroke:rgb(61, 194, 248);transform:matrix(1, 0, 0, 1, -84.128, 0);;animation:none"></path></g>
<g transform="matrix(0.8090169943749475,0.5877852522924731,-0.5877852522924731,0.8090169943749475,465.3044597302298,-470.0598754859541)" style="transform:matrix(0.809017, 0.587785, -0.587785, 0.809017, 465.304, -470.06);;animation:none"><path stroke-width="2" stroke-opacity="0" stroke="rgb(63, 192, 246)" fill="none" d="M 0 512.577 C 319 512.577 637 699.423 956 699.423 C 1275 699.423 1593 512.577 1912 512.577 C 2231 512.577 2549 699.423 2868 699.423 C 3187 699.423 3505 512.577 3824 512.577" transform="matrix(1,0,0,1,-91.7760009765625,0)" style="fill:none;stroke:rgb(63, 192, 246);transform:matrix(1, 0, 0, 1, -91.776, 0);;animation:none"></path></g>
<g transform="matrix(0.7771459614569709,0.6293203910498374,-0.6293203910498374,0.7771459614569709,515.7515689421077,-494.43750130444755)" style="transform:matrix(0.777146, 0.62932, -0.62932, 0.777146, 515.752, -494.438);;animation:none"><path stroke-width="2" stroke-opacity="0" stroke="rgb(65, 190, 244)" fill="none" d="M 0 513.048 C 319 513.048 637 698.952 956 698.952 C 1275 698.952 1593 513.048 1912 513.048 C 2231 513.048 2549 698.952 2868 698.952 C 3187 698.952 3505 513.048 3824 513.048" transform="matrix(1,0,0,1,-99.42400360107422,0)" style="fill:none;stroke:rgb(65, 190, 244);transform:matrix(1, 0, 0, 1, -99.424, 0);;animation:none"></path></g>
<g transform="matrix(0.7431448254773942,0.6691306063588582,-0.6691306063588582,0.7431448254773942,567.4053685022219,-516.1415207336952)" style="transform:matrix(0.743145, 0.669131, -0.669131, 0.743145, 567.405, -516.142);;animation:none"><path stroke-width="2" stroke-opacity="0" stroke="rgb(68, 187, 242)" fill="none" d="M 0 513.562 C 319 513.562 637 698.438 956 698.438 C 1275 698.438 1593 513.562 1912 513.562 C 2231 513.562 2549 698.438 2868 698.438 C 3187 698.438 3505 513.562 3824 513.562" transform="matrix(1,0,0,1,-107.07200622558594,0)" style="fill:none;stroke:rgb(68, 187, 242);transform:matrix(1, 0, 0, 1, -107.072, 0);;animation:none"></path></g>
<g transform="matrix(0.7071067811865476,0.7071067811865476,-0.7071067811865476,0.7071067811865476,620.1242789363899,-535.1124445650688)" style="transform:matrix(0.707107, 0.707107, -0.707107, 0.707107, 620.124, -535.112);;animation:none"><path stroke-width="2" stroke-opacity="0" stroke="rgb(71, 184, 240)" fill="none" d="M 0 514.121 C 319 514.121 637 697.879 956 697.879 C 1275 697.879 1593 514.121 1912 514.121 C 2231 514.121 2549 697.879 2868 697.879 C 3187 697.879 3505 514.121 3824 514.121" transform="matrix(1,0,0,1,-114.72000122070312,0)" style="fill:none;stroke:rgb(71, 184, 240);transform:matrix(1, 0, 0, 1, -114.72, 0);;animation:none"></path></g>
<g transform="matrix(0.6691306063588582,0.7431448254773942,-0.7431448254773942,0.6691306063588582,673.7638013755582,-551.2982748149998)" style="transform:matrix(0.669131, 0.743145, -0.743145, 0.669131, 673.764, -551.298);;animation:none"><path stroke-width="2" stroke-opacity="0" stroke="rgb(74, 181, 238)" fill="none" d="M 0 514.725 C 319 514.725 637 697.275 956 697.275 C 1275 697.275 1593 514.725 1912 514.725 C 2231 514.725 2549 697.275 2868 697.275 C 3187 697.275 3505 514.725 3824 514.725" transform="matrix(1,0,0,1,-122.36800384521484,0)" style="fill:none;stroke:rgb(74, 181, 238);transform:matrix(1, 0, 0, 1, -122.368, 0);;animation:none"></path></g>
<g transform="matrix(0.6293203910498375,0.7771459614569709,-0.7771459614569709,0.6293203910498375,728.1769136171583,-564.654647247836)" style="transform:matrix(0.62932, 0.777146, -0.777146, 0.62932, 728.177, -564.655);;animation:none"><path stroke-width="2" stroke-opacity="0" stroke="rgb(77, 178, 235)" fill="none" d="M 0 515.376 C 319 515.376 637 696.624 956 696.624 C 1275 696.624 1593 515.376 1912 515.376 C 2231 515.376 2549 696.624 2868 696.624 C 3187 696.624 3505 515.376 3824 515.376" transform="matrix(1,0,0,1,-130.01600646972656,0)" style="fill:none;stroke:rgb(77, 178, 235);transform:matrix(1, 0, 0, 1, -130.016, 0);;animation:none"></path></g>
<g transform="matrix(0.5877852522924731,0.8090169943749475,-0.8090169943749475,0.5877852522924731,783.2144731027454,-575.1449529751294)" style="transform:matrix(0.587785, 0.809017, -0.809017, 0.587785, 783.214, -575.145);;animation:none"><path stroke-width="2" stroke-opacity="0" stroke="rgb(81, 174, 233)" fill="none" d="M 0 516.074 C 319 516.074 637 695.926 956 695.926 C 1275 695.926 1593 516.074 1912 516.074 C 2231 516.074 2549 695.926 2868 695.926 C 3187 695.926 3505 516.074 3824 516.074" transform="matrix(1,0,0,1,-137.66400146484375,0)" style="fill:none;stroke:rgb(81, 174, 233);transform:matrix(1, 0, 0, 1, -137.664, 0);;animation:none"></path></g>
<g transform="matrix(0.5446390350150271,0.838670567945424,-0.838670567945424,0.5446390350150271,838.7256257073831,-582.7404387980534)" style="transform:matrix(0.544639, 0.838671, -0.838671, 0.544639, 838.726, -582.74);;animation:none"><path stroke-width="2" stroke-opacity="0" stroke="rgb(85, 170, 230)" fill="none" d="M 0 516.821 C 319 516.821 637 695.179 956 695.179 C 1275 695.179 1593 516.821 1912 516.821 C 2231 516.821 2549 695.179 2868 695.179 C 3187 695.179 3505 516.821 3824 516.821" transform="matrix(1,0,0,1,-145.31199645996094,0)" style="fill:none;stroke:rgb(85, 170, 230);transform:matrix(1, 0, 0, 1, -145.312, 0);;animation:none"></path></g>
<g transform="matrix(0.5000000000000001,0.8660254037844386,-0.8660254037844386,0.5000000000000001,894.5582192203149,-587.4202860179234)" style="transform:matrix(0.5, 0.866025, -0.866025, 0.5, 894.558, -587.42);;animation:none"><path stroke-width="2" stroke-opacity="0" stroke="rgb(89, 166, 227)" fill="none" d="M 0 517.618 C 319 517.618 637 694.382 956 694.382 C 1275 694.382 1593 517.618 1912 517.618 C 2231 517.618 2549 694.382 2868 694.382 C 3187 694.382 3505 517.618 3824 517.618" transform="matrix(1,0,0,1,-152.95999145507812,0)" style="fill:none;stroke:rgb(89, 166, 227);transform:matrix(1, 0, 0, 1, -152.96, 0);;animation:none"></path></g>
<g transform="matrix(0.4539904997395468,0.8910065241883678,-0.8910065241883678,0.4539904997395468,950.5592203835981,-589.1716674988015)" style="transform:matrix(0.45399, 0.891007, -0.891007, 0.45399, 950.559, -589.172);;animation:none"><path stroke-width="2" stroke-opacity="0" stroke="rgb(93, 162, 223)" fill="none" d="M 0 518.465 C 319 518.465 637 693.535 956 693.535 C 1275 693.535 1593 518.465 1912 518.465 C 2231 518.465 2549 693.535 2868 693.535 C 3187 693.535 3505 518.465 3824 518.465" transform="matrix(1,0,0,1,-160.60800170898438,0)" style="fill:none;stroke:rgb(93, 162, 223);transform:matrix(1, 0, 0, 1, -160.608, 0);;animation:none"></path></g>
<g transform="matrix(0.4067366430758002,0.9135454576426009,-0.9135454576426009,0.4067366430758002,1006.575134345626,-587.9897828257863)" style="transform:matrix(0.406737, 0.913545, -0.913545, 0.406737, 1006.58, -587.99);;animation:none"><path stroke-width="2" stroke-opacity="0" stroke="rgb(98, 157, 220)" fill="none" d="M 0 519.364 C 319 519.364 637 692.636 956 692.636 C 1275 692.636 1593 519.364 1912 519.364 C 2231 519.364 2549 692.636 2868 692.636 C 3187 692.636 3505 519.364 3824 519.364" transform="matrix(1,0,0,1,-168.25599670410156,0)" style="fill:none;stroke:rgb(98, 157, 220);transform:matrix(1, 0, 0, 1, -168.256, 0);;animation:none"></path></g>
<g transform="matrix(0.3583679495453004,0.9335804264972017,-0.9335804264972017,0.3583679495453004,1062.4524253798468,-583.8778714626144)" style="transform:matrix(0.358368, 0.93358, -0.93358, 0.358368, 1062.45, -583.878);;animation:none"><path stroke-width="2" stroke-opacity="0" stroke="rgb(103, 152, 216)" fill="none" d="M 0 520.316 C 319 520.316 637 691.684 956 691.684 C 1275 691.684 1593 520.316 1912 520.316 C 2231 520.316 2549 691.684 2868 691.684 C 3187 691.684 3505 520.316 3824 520.316" transform="matrix(1,0,0,1,-175.9040069580078,0)" style="fill:none;stroke:rgb(103, 152, 216);transform:matrix(1, 0, 0, 1, -175.904, 0);;animation:none"></path></g>
<g transform="matrix(0.30901699437494745,0.9510565162951535,-0.9510565162951535,0.30901699437494745,1118.037937715519,-576.8472038725165)" style="transform:matrix(0.309017, 0.951057, -0.951057, 0.309017, 1118.04, -576.847);;animation:none"><path stroke-width="2" stroke-opacity="0" stroke="rgb(108, 147, 212)" fill="none" d="M 0 521.322 C 319 521.322 637 690.678 956 690.678 C 1275 690.678 1593 521.322 1912 521.322 C 2231 521.322 2549 690.678 2868 690.678 C 3187 690.678 3505 521.322 3824 521.322" transform="matrix(1,0,0,1,-183.552001953125,0)" style="fill:none;stroke:rgb(108, 147, 212);transform:matrix(1, 0, 0, 1, -183.552, 0);;animation:none"></path></g>
<g transform="matrix(0.25881904510252074,0.9659258262890683,-0.9659258262890683,0.25881904510252074,1173.179315327032,-566.9170506266619)" style="transform:matrix(0.258819, 0.965926, -0.965926, 0.258819, 1173.18, -566.917);;animation:none"><path stroke-width="2" stroke-opacity="0" stroke="rgb(114, 141, 208)" fill="none" d="M 0 522.383 C 319 522.383 637 689.617 956 689.617 C 1275 689.617 1593 522.383 1912 522.383 C 2231 522.383 2549 689.617 2868 689.617 C 3187 689.617 3505 522.383 3824 522.383" transform="matrix(1,0,0,1,-191.1999969482422,0)" style="fill:none;stroke:rgb(114, 141, 208);transform:matrix(1, 0, 0, 1, -191.2, 0);;animation:none"></path></g>
<g transform="matrix(0.20791169081775945,0.9781476007338056,-0.9781476007338056,0.20791169081775945,1227.7254195311825,-554.1146295848605)" style="transform:matrix(0.207912, 0.978148, -0.978148, 0.207912, 1227.73, -554.115);;animation:none"><path stroke-width="2" stroke-opacity="0" stroke="rgb(120, 135, 203)" fill="none" d="M 0 523.5 C 319 523.5 637 688.5 956 688.5 C 1275 688.5 1593 523.5 1912 523.5 C 2231 523.5 2549 688.5 2868 688.5 C 3187 688.5 3505 523.5 3824 523.5" transform="matrix(1,0,0,1,-198.84800720214844,0)" style="fill:none;stroke:rgb(120, 135, 203);transform:matrix(1, 0, 0, 1, -198.848, 0);;animation:none"></path></g>
<g transform="matrix(0.15643446504023092,0.9876883405951378,-0.9876883405951378,0.15643446504023092,1281.5267432478004,-538.4750312933028)" style="transform:matrix(0.156434, 0.987688, -0.987688, 0.156434, 1281.53, -538.475);;animation:none"><path stroke-width="2" stroke-opacity="0" stroke="rgb(126, 129, 199)" fill="none" d="M 0 524.675 C 319 524.675 637 687.325 956 687.325 C 1275 687.325 1593 524.675 1912 524.675 C 2231 524.675 2549 687.325 2868 687.325 C 3187 687.325 3505 524.675 3824 524.675" transform="matrix(1,0,0,1,-206.49600219726562,0)" style="fill:none;stroke:rgb(126, 129, 199);transform:matrix(1, 0, 0, 1, -206.496, 0);;animation:none"></path></g>
<g transform="matrix(0.10452846326765346,0.9945218953682733,-0.9945218953682733,0.10452846326765346,1334.4358207882628,-520.0411228038106)" style="transform:matrix(0.104528, 0.994522, -0.994522, 0.104528, 1334.44, -520.041);;animation:none"><path stroke-width="2" stroke-opacity="0" stroke="rgb(132, 123, 194)" fill="none" d="M 0 525.908 C 319 525.908 637 686.092 956 686.092 C 1275 686.092 1593 525.908 1912 525.908 C 2231 525.908 2549 686.092 2868 686.092 C 3187 686.092 3505 525.908 3824 525.908" transform="matrix(1,0,0,1,-214.14401245117188,0)" style="fill:none;stroke:rgb(132, 123, 194);transform:matrix(1, 0, 0, 1, -214.144, 0);;animation:none"></path></g>
<g transform="matrix(0.052335956242943966,0.9986295347545738,-0.9986295347545738,0.052335956242943966,1386.3076320486955,-498.86343017822867)" style="transform:matrix(0.052336, 0.99863, -0.99863, 0.052336, 1386.31, -498.863);;animation:none"><path stroke-width="2" stroke-opacity="0" stroke="rgb(138, 117, 189)" fill="none" d="M 0 527.2 C 319 527.2 637 684.8 956 684.8 C 1275 684.8 1593 527.2 1912 527.2 C 2231 527.2 2549 684.8 2868 684.8 C 3187 684.8 3505 527.2 3824 527.2" transform="matrix(1,0,0,1,-221.79151916503906,0)" style="fill:none;stroke:rgb(138, 117, 189);transform:matrix(1, 0, 0, 1, -221.792, 0);;animation:none"></path></g>
<g transform="matrix(6.123233995736766e-17,1,-1,6.123233995736766e-17,1437,-475)" style="transform:matrix(0, 1, -1, 0, 1437, -475);;animation:none"><path stroke-width="2" stroke-opacity="0" stroke="rgb(145, 110, 185)" fill="none" d="M 0 528.553 C 319 528.553 637 683.447 956 683.447 C 1275 683.447 1593 528.553 1912 528.553 C 2231 528.553 2549 683.447 2868 683.447 C 3187 683.447 3505 528.553 3824 528.553" transform="matrix(1,0,0,1,-229.44000244140625,0)" style="fill:none;stroke:rgb(145, 110, 185);transform:matrix(1, 0, 0, 1, -229.44, 0);;animation:none"></path></g>
<g transform="matrix(-0.05233595624294384,0.9986295347545738,-0.9986295347545738,-0.05233595624294384,1486.3739803852043,-448.5162402725166)" style="transform:matrix(-0.052336, 0.99863, -0.99863, -0.052336, 1486.37, -448.516);;animation:none"><path stroke-width="2" stroke-opacity="0" stroke="rgb(151, 104, 180)" fill="none" d="M 0 529.968 C 319 529.968 637 682.032 956 682.032 C 1275 682.032 1593 529.968 1912 529.968 C 2231 529.968 2549 682.032 2868 682.032 C 3187 682.032 3505 529.968 3824 529.968" transform="matrix(1,0,0,1,-237.08799743652344,0)" style="fill:none;stroke:rgb(151, 104, 180);transform:matrix(1, 0, 0, 1, -237.088, 0);;animation:none"></path></g>
<g transform="matrix(-0.10452846326765355,0.9945218953682733,-0.9945218953682733,-0.10452846326765355,1534.2942425560163,-419.48474114032797)" style="transform:matrix(-0.104528, 0.994522, -0.994522, -0.104528, 1534.29, -419.485);;animation:none"><path stroke-width="2" stroke-opacity="0" stroke="rgb(158, 97, 175)" fill="none" d="M 0 531.445 C 319 531.445 637 680.555 956 680.555 C 1275 680.555 1593 531.445 1912 531.445 C 2231 531.445 2549 680.555 2868 680.555 C 3187 680.555 3505 531.445 3824 531.445" transform="matrix(1,0,0,1,-244.7360076904297,0)" style="fill:none;stroke:rgb(158, 97, 175);transform:matrix(1, 0, 0, 1, -244.736, 0);;animation:none"></path></g>
<g transform="matrix(-0.1564344650402308,0.9876883405951378,-0.9876883405951378,-0.1564344650402308,1580.629440404722,-387.98507592460066)" style="transform:matrix(-0.156434, 0.987688, -0.987688, -0.156434, 1580.63, -387.985);;animation:none"><path stroke-width="2" stroke-opacity="0" stroke="rgb(164, 91, 170)" fill="none" d="M 0 532.986 C 319 532.986 637 679.014 956 679.014 C 1275 679.014 1593 532.986 1912 532.986 C 2231 532.986 2549 679.014 2868 679.014 C 3187 679.014 3505 532.986 3824 532.986" transform="matrix(1,0,0,1,-252.38400268554688,0)" style="fill:none;stroke:rgb(164, 91, 170);transform:matrix(1, 0, 0, 1, -252.384, 0);;animation:none"></path></g>
<g transform="matrix(-0.20791169081775934,0.9781476007338057,-0.9781476007338057,-0.20791169081775934,1625.2525723747385,-354.1035830181761)" style="transform:matrix(-0.207912, 0.978148, -0.978148, -0.207912, 1625.25, -354.104);;animation:none"><path stroke-width="2" stroke-opacity="0" stroke="rgb(171, 84, 165)" fill="none" d="M 0 534.59 C 319 534.59 637 677.41 956 677.41 C 1275 677.41 1593 534.59 1912 534.59 C 2231 534.59 2549 677.41 2868 677.41 C 3187 677.41 3505 534.59 3824 534.59" transform="matrix(1,0,0,1,-260.0320129394531,0)" style="fill:none;stroke:rgb(171, 84, 165);transform:matrix(1, 0, 0, 1, -260.032, 0);;animation:none"></path></g>
<g transform="matrix(-0.25881904510252085,0.9659258262890683,-0.9659258262890683,-0.25881904510252085,1668.041329563052,-317.9331292380368)" style="transform:matrix(-0.258819, 0.965926, -0.965926, -0.258819, 1668.04, -317.933);;animation:none"><path stroke-width="2" stroke-opacity="0" stroke="rgb(177, 78, 160)" fill="none" d="M 0 536.26 C 319 536.26 637 675.74 956 675.74 C 1275 675.74 1593 536.26 1912 536.26 C 2231 536.26 2549 675.74 2868 675.74 C 3187 675.74 3505 536.26 3824 536.26" transform="matrix(1,0,0,1,-267.67999267578125,0)" style="fill:none;stroke:rgb(177, 78, 160);transform:matrix(1, 0, 0, 1, -267.68, 0);;animation:none"></path></g>
<g transform="matrix(-0.30901699437494734,0.9510565162951536,-0.9510565162951536,-0.30901699437494734,1708.8784309604184,-279.57285528381726)" style="transform:matrix(-0.309017, 0.951057, -0.951057, -0.309017, 1708.88, -279.573);;animation:none"><path stroke-width="2" stroke-opacity="0" stroke="rgb(183, 72, 156)" fill="none" d="M 0 537.996 C 319 537.996 637 674.004 956 674.004 C 1275 674.004 1593 537.996 1912 537.996 C 2231 537.996 2549 674.004 2868 674.004 C 3187 674.004 3505 537.996 3824 537.996" transform="matrix(1,0,0,1,-275.3280029296875,0)" style="fill:none;stroke:rgb(183, 72, 156);transform:matrix(1, 0, 0, 1, -275.328, 0);;animation:none"></path></g>
<g transform="matrix(-0.35836794954530027,0.9335804264972017,-0.9335804264972017,-0.35836794954530027,1747.6519449104612,-239.12790400003541)" style="transform:matrix(-0.358368, 0.93358, -0.93358, -0.358368, 1747.65, -239.128);;animation:none"><path stroke-width="2" stroke-opacity="0" stroke="rgb(189, 66, 151)" fill="none" d="M 0 539.799 C 319 539.799 637 672.201 956 672.201 C 1275 672.201 1593 539.799 1912 539.799 C 2231 539.799 2549 672.201 2868 672.201 C 3187 672.201 3505 539.799 3824 539.799" transform="matrix(1,0,0,1,-282.97601318359375,0)" style="fill:none;stroke:rgb(189, 66, 151);transform:matrix(1, 0, 0, 1, -282.976, 0);;animation:none"></path></g>
<g transform="matrix(-0.40673664307580026,0.9135454576426009,-0.9135454576426009,-0.40673664307580026,1784.255595906556,-196.70913218686655)" style="transform:matrix(-0.406737, 0.913545, -0.913545, -0.406737, 1784.26, -196.709);;animation:none"><path stroke-width="2" stroke-opacity="0" stroke="rgb(195, 60, 147)" fill="none" d="M 0 541.668 C 319 541.668 637 670.332 956 670.332 C 1275 670.332 1593 541.668 1912 541.668 C 2231 541.668 2549 670.332 2868 670.332 C 3187 670.332 3505 541.668 3824 541.668" transform="matrix(1,0,0,1,-290.6239929199219,0)" style="fill:none;stroke:rgb(195, 60, 147);transform:matrix(1, 0, 0, 1, -290.624, 0);;animation:none"></path></g>
<g transform="matrix(-0.45399049973954675,0.8910065241883679,-0.8910065241883679,-0.45399049973954675,1818.5890558856117,-152.43280674935772)" style="transform:matrix(-0.45399, 0.891007, -0.891007, -0.45399, 1818.59, -152.433);;animation:none"><path stroke-width="2" stroke-opacity="0" stroke="rgb(200, 55, 143)" fill="none" d="M 0 543.605 C 319 543.605 637 668.395 956 668.395 C 1275 668.395 1593 543.605 1912 543.605 C 2231 543.605 2549 668.395 2868 668.395 C 3187 668.395 3505 543.605 3824 543.605" transform="matrix(1,0,0,1,-298.2720031738281,0)" style="fill:none;stroke:rgb(200, 55, 143);transform:matrix(1, 0, 0, 1, -298.272, 0);;animation:none"></path></g>
<g transform="matrix(-0.4999999999999998,0.8660254037844387,-0.8660254037844387,-0.4999999999999998,1850.5582192203149,-106.42028601792356)" style="transform:matrix(-0.5, 0.866025, -0.866025, -0.5, 1850.56, -106.42);;animation:none"><path stroke-width="2" stroke-opacity="0" stroke="rgb(205, 50, 139)" fill="none" d="M 0 545.61 C 319 545.61 637 666.39 956 666.39 C 1275 666.39 1593 545.61 1912 545.61 C 2231 545.61 2549 666.39 2868 666.39 C 3187 666.39 3505 545.61 3824 545.61" transform="matrix(1,0,0,1,-305.91998291015625,0)" style="fill:none;stroke:rgb(205, 50, 139);transform:matrix(1, 0, 0, 1, -305.92, 0);;animation:none"></path></g>
<g transform="matrix(-0.5446390350150271,0.838670567945424,-0.838670567945424,-0.5446390350150271,1880.075460656115,-58.79768711359725)" style="transform:matrix(-0.544639, 0.838671, -0.838671, -0.544639, 1880.08, -58.7977);;animation:none"><path stroke-width="2" stroke-opacity="0" stroke="rgb(210, 45, 135)" fill="none" d="M 0 547.682 C 319 547.682 637 664.318 956 664.318 C 1275 664.318 1593 547.682 1912 547.682 C 2231 547.682 2549 664.318 2868 664.318 C 3187 664.318 3505 547.682 3824 547.682" transform="matrix(1,0,0,1,-313.5680236816406,0)" style="fill:none;stroke:rgb(210, 45, 135);transform:matrix(1, 0, 0, 1, -313.568, 0);;animation:none"></path></g>
<g transform="matrix(-0.587785252292473,0.8090169943749475,-0.8090169943749475,-0.587785252292473,1907.0598754859539,-9.695540269770277)" style="transform:matrix(-0.587785, 0.809017, -0.809017, -0.587785, 1907.06, -9.69554);;animation:none"><path stroke-width="2" stroke-opacity="0" stroke="rgb(215, 40, 132)" fill="none" d="M 0 549.823 C 319 549.823 637 662.177 956 662.177 C 1275 662.177 1593 549.823 1912 549.823 C 2231 549.823 2549 662.177 2868 662.177 C 3187 662.177 3505 549.823 3824 549.823" transform="matrix(1,0,0,1,-321.21600341796875,0)" style="fill:none;stroke:rgb(215, 40, 132);transform:matrix(1, 0, 0, 1, -321.216, 0);;animation:none"></path></g>
<g transform="matrix(-0.6293203910498373,0.777145961456971,-0.777145961456971,-0.6293203910498373,1931.4375013044476,40.7515689421075)" style="transform:matrix(-0.62932, 0.777146, -0.777146, -0.62932, 1931.44, 40.7516);;animation:none"><path stroke-width="2" stroke-opacity="0" stroke="rgb(219, 36, 129)" fill="none" d="M 0 552.03 C 319 552.03 637 659.97 956 659.97 C 1275 659.97 1593 552.03 1912 552.03 C 2231 552.03 2549 659.97 2868 659.97 C 3187 659.97 3505 552.03 3824 552.03" transform="matrix(1,0,0,1,-328.864013671875,0)" style="fill:none;stroke:rgb(219, 36, 129);transform:matrix(1, 0, 0, 1, -328.864, 0);;animation:none"></path></g>
<g transform="matrix(-0.6691306063588582,0.7431448254773942,-0.7431448254773942,-0.6691306063588582,1953.1415207336952,92.4053685022219)" style="transform:matrix(-0.669131, 0.743145, -0.743145, -0.669131, 1953.14, 92.4054);;animation:none"><path stroke-width="2" stroke-opacity="0" stroke="rgb(223, 32, 126)" fill="none" d="M 0 554.305 C 319 554.305 637 657.695 956 657.695 C 1275 657.695 1593 554.305 1912 554.305 C 2231 554.305 2549 657.695 2868 657.695 C 3187 657.695 3505 554.305 3824 554.305" transform="matrix(1,0,0,1,-336.5119934082031,0)" style="fill:none;stroke:rgb(223, 32, 126);transform:matrix(1, 0, 0, 1, -336.512, 0);;animation:none"></path></g>
<g transform="matrix(-0.7071067811865475,0.7071067811865476,-0.7071067811865476,-0.7071067811865475,1972.1124445650687,145.12427893638989)" style="transform:matrix(-0.707107, 0.707107, -0.707107, -0.707107, 1972.11, 145.124);;animation:none"><path stroke-width="2" stroke-opacity="0" stroke="rgb(227, 28, 123)" fill="none" d="M 0 556.646 C 319 556.646 637 655.354 956 655.354 C 1275 655.354 1593 556.646 1912 556.646 C 2231 556.646 2549 655.354 2868 655.354 C 3187 655.354 3505 556.646 3824 556.646" transform="matrix(1,0,0,1,-344.1600036621094,0)" style="fill:none;stroke:rgb(227, 28, 123);transform:matrix(1, 0, 0, 1, -344.16, 0);;animation:none"></path></g>
<g transform="matrix(-0.7431448254773941,0.6691306063588583,-0.6691306063588583,-0.7431448254773941,1988.2982748149996,198.76380137555793)" style="transform:matrix(-0.743145, 0.669131, -0.669131, -0.743145, 1988.3, 198.764);;animation:none"><path stroke-width="2" stroke-opacity="0" stroke="rgb(231, 24, 120)" fill="none" d="M 0 559.052 C 319 559.052 637 652.948 956 652.948 C 1275 652.948 1593 559.052 1912 559.052 C 2231 559.052 2549 652.948 2868 652.948 C 3187 652.948 3505 559.052 3824 559.052" transform="matrix(1,0,0,1,-351.8080139160156,0)" style="fill:none;stroke:rgb(231, 24, 120);transform:matrix(1, 0, 0, 1, -351.808, 0);;animation:none"></path></g>
<g transform="matrix(-0.7771459614569709,0.6293203910498374,-0.6293203910498374,-0.7771459614569709,2001.654647247836,253.1769136171585)" style="transform:matrix(-0.777146, 0.62932, -0.62932, -0.777146, 2001.65, 253.177);;animation:none"><path stroke-width="2" stroke-opacity="0" stroke="rgb(234, 21, 118)" fill="none" d="M 0 561.523 C 319 561.523 637 650.477 956 650.477 C 1275 650.477 1593 561.523 1912 561.523 C 2231 561.523 2549 650.477 2868 650.477 C 3187 650.477 3505 561.523 3824 561.523" transform="matrix(1,0,0,1,-359.45599365234375,0)" style="fill:none;stroke:rgb(234, 21, 118);transform:matrix(1, 0, 0, 1, -359.456, 0);;animation:none"></path></g>
<g transform="matrix(-0.8090169943749473,0.5877852522924732,-0.5877852522924732,-0.8090169943749473,2012.1449529751294,308.2144731027452)" style="transform:matrix(-0.809017, 0.587785, -0.587785, -0.809017, 2012.14, 308.214);;animation:none"><path stroke-width="2" stroke-opacity="0" stroke="rgb(237, 18, 116)" fill="none" d="M 0 564.056 C 319 564.056 637 647.944 956 647.944 C 1275 647.944 1593 564.056 1912 564.056 C 2231 564.056 2549 647.944 2868 647.944 C 3187 647.944 3505 564.056 3824 564.056" transform="matrix(1,0,0,1,-367.10400390625,0)" style="fill:none;stroke:rgb(237, 18, 116);transform:matrix(1, 0, 0, 1, -367.104, 0);;animation:none"></path></g>
<g transform="matrix(-0.8386705679454239,0.5446390350150273,-0.5446390350150273,-0.8386705679454239,2019.7404387980534,363.7256257073828)" style="transform:matrix(-0.838671, 0.544639, -0.544639, -0.838671, 2019.74, 363.726);;animation:none"><path stroke-width="2" stroke-opacity="0" stroke="rgb(239, 16, 114)" fill="none" d="M 0 566.65 C 319 566.65 637 645.35 956 645.35 C 1275 645.35 1593 566.65 1912 566.65 C 2231 566.65 2549 645.35 2868 645.35 C 3187 645.35 3505 566.65 3824 566.65" transform="matrix(1,0,0,1,-374.7519836425781,0)" style="fill:none;stroke:rgb(239, 16, 114);transform:matrix(1, 0, 0, 1, -374.752, 0);;animation:none"></path></g>
<g transform="matrix(-0.8660254037844387,0.49999999999999994,-0.49999999999999994,-0.8660254037844387,2024.4202860179234,419.5582192203151)" style="transform:matrix(-0.866025, 0.5, -0.5, -0.866025, 2024.42, 419.558);;animation:none"><path stroke-width="2" stroke-opacity="0" stroke="rgb(242, 13, 112)" fill="none" d="M 0 569.302 C 319 569.302 637 642.698 956 642.698 C 1275 642.698 1593 569.302 1912 569.302 C 2231 569.302 2549 642.698 2868 642.698 C 3187 642.698 3505 569.302 3824 569.302" transform="matrix(1,0,0,1,-382.3999938964844,0)" style="fill:none;stroke:rgb(242, 13, 112);transform:matrix(1, 0, 0, 1, -382.4, 0);;animation:none"></path></g>
<g transform="matrix(-0.8910065241883678,0.45399049973954686,-0.45399049973954686,-0.8910065241883678,2026.1716674988018,475.5592203835981)" style="transform:matrix(-0.891007, 0.45399, -0.45399, -0.891007, 2026.17, 475.559);;animation:none"><path stroke-width="2" stroke-opacity="0" stroke="rgb(244, 11, 110)" fill="none" d="M 0 572.01 C 319 572.01 637 639.99 956 639.99 C 1275 639.99 1593 572.01 1912 572.01 C 2231 572.01 2549 639.99 2868 639.99 C 3187 639.99 3505 572.01 3824 572.01" transform="matrix(1,0,0,1,-390.0480041503906,0)" style="fill:none;stroke:rgb(244, 11, 110);transform:matrix(1, 0, 0, 1, -390.048, 0);;animation:none"></path></g>
<g transform="matrix(-0.9135454576426008,0.40673664307580043,-0.40673664307580043,-0.9135454576426008,2024.9897828257863,531.5751343456258)" style="transform:matrix(-0.913545, 0.406737, -0.406737, -0.913545, 2024.99, 531.575);;animation:none"><path stroke-width="2" stroke-opacity="0" stroke="rgb(246, 9, 109)" fill="none" d="M 0 574.772 C 319 574.772 637 637.228 956 637.228 C 1275 637.228 1593 574.772 1912 574.772 C 2231 574.772 2549 637.228 2868 637.228 C 3187 637.228 3505 574.772 3824 574.772" transform="matrix(1,0,0,1,-397.6960144042969,0)" style="fill:none;stroke:rgb(246, 9, 109);transform:matrix(1, 0, 0, 1, -397.696, 0);;animation:none"></path></g>
<g transform="matrix(-0.9335804264972017,0.3583679495453002,-0.3583679495453002,-0.9335804264972017,2020.8778714626144,587.452425379847)" style="transform:matrix(-0.93358, 0.358368, -0.358368, -0.93358, 2020.88, 587.452);;animation:none"><path stroke-width="2" stroke-opacity="0" stroke="rgb(248, 7, 107)" fill="none" d="M 0 577.584 C 319 577.584 637 634.416 956 634.416 C 1275 634.416 1593 577.584 1912 577.584 C 2231 577.584 2549 634.416 2868 634.416 C 3187 634.416 3505 577.584 3824 577.584" transform="matrix(1,0,0,1,-405.343994140625,0)" style="fill:none;stroke:rgb(248, 7, 107);transform:matrix(1, 0, 0, 1, -405.344, 0);;animation:none"></path></g>
<g transform="matrix(-0.9510565162951535,0.3090169943749475,-0.3090169943749475,-0.9510565162951535,2013.8472038725165,643.0379377155191)" style="transform:matrix(-0.951057, 0.309017, -0.309017, -0.951057, 2013.85, 643.038);;animation:none"><path stroke-width="2" stroke-opacity="0" stroke="rgb(249, 6, 106)" fill="none" d="M 0 580.442 C 319 580.442 637 631.558 956 631.558 C 1275 631.558 1593 580.442 1912 580.442 C 2231 580.442 2549 631.558 2868 631.558 C 3187 631.558 3505 580.442 3824 580.442" transform="matrix(1,0,0,1,-412.99200439453125,0)" style="fill:none;stroke:rgb(249, 6, 106);transform:matrix(1, 0, 0, 1, -412.992, 0);;animation:none"></path></g>
<g transform="matrix(-0.9659258262890682,0.258819045102521,-0.258819045102521,-0.9659258262890682,2003.9170506266619,698.1793153270316)" style="transform:matrix(-0.965926, 0.258819, -0.258819, -0.965926, 2003.92, 698.179);;animation:none"><path stroke-width="2" stroke-opacity="0" stroke="rgb(251, 4, 105)" fill="none" d="M 0 583.343 C 319 583.343 637 628.656 956 628.656 C 1275 628.656 1593 583.343 1912 583.343 C 2231 583.343 2549 628.656 2868 628.656 C 3187 628.656 3505 583.343 3824 583.343" transform="matrix(1,0,0,1,-420.6399841308594,0)" style="fill:none;stroke:rgb(251, 4, 105);transform:matrix(1, 0, 0, 1, -420.64, 0);;animation:none"></path></g>
<g transform="matrix(-0.9781476007338057,0.20791169081775931,-0.20791169081775931,-0.9781476007338057,1991.1146295848605,752.7254195311826)" style="transform:matrix(-0.978148, 0.207912, -0.207912, -0.978148, 1991.11, 752.725);;animation:none"><path stroke-width="2" stroke-opacity="0" stroke="rgb(252, 3, 104)" fill="none" d="M 0 586.283 C 319 586.283 637 625.717 956 625.717 C 1275 625.717 1593 586.283 1912 586.283 C 2231 586.283 2549 625.717 2868 625.717 C 3187 625.717 3505 586.283 3824 586.283" transform="matrix(1,0,0,1,-428.28802490234375,0)" style="fill:none;stroke:rgb(252, 3, 104);transform:matrix(1, 0, 0, 1, -428.288, 0);;animation:none"></path></g>
<g transform="matrix(-0.9876883405951377,0.15643446504023098,-0.15643446504023098,-0.9876883405951377,1975.4750312933027,806.5267432478004)" style="transform:matrix(-0.987688, 0.156434, -0.156434, -0.987688, 1975.48, 806.527);;animation:none"><path stroke-width="2" stroke-opacity="0" stroke="rgb(253, 2, 104)" fill="none" d="M 0 589.257 C 319 589.257 637 622.743 956 622.743 C 1275 622.743 1593 589.257 1912 589.257 C 2231 589.257 2549 622.743 2868 622.743 C 3187 622.743 3505 589.257 3824 589.257" transform="matrix(1,0,0,1,-435.9355163574219,0)" style="fill:none;stroke:rgb(253, 2, 104);transform:matrix(1, 0, 0, 1, -435.936, 0);;animation:none"></path></g>
<g transform="matrix(-0.9945218953682733,0.10452846326765373,-0.10452846326765373,-0.9945218953682733,1957.0411228038106,859.4358207882625)" style="transform:matrix(-0.994522, 0.104528, -0.104528, -0.994522, 1957.04, 859.436);;animation:none"><path stroke-width="2" stroke-opacity="0" stroke="rgb(253, 2, 103)" fill="none" d="M 0 592.26 C 319 592.26 637 619.74 956 619.74 C 1275 619.74 1593 592.26 1912 592.26 C 2231 592.26 2549 619.74 2868 619.74 C 3187 619.74 3505 592.26 3824 592.26" transform="matrix(1,0,0,1,-443.5835266113281,0)" style="fill:none;stroke:rgb(253, 2, 103);transform:matrix(1, 0, 0, 1, -443.584, 0);;animation:none"></path></g>
<g transform="matrix(-0.9986295347545738,0.05233595624294381,-0.05233595624294381,-0.9986295347545738,1935.8634301782286,911.3076320486957)" style="transform:matrix(-0.99863, 0.052336, -0.052336, -0.99863, 1935.86, 911.308);;animation:none"><path stroke-width="2" stroke-opacity="0" stroke="rgb(254, 1, 103)" fill="none" d="M 0 595.288 C 319 595.288 637 616.712 956 616.712 C 1275 616.712 1593 595.288 1912 595.288 C 2231 595.288 2549 616.712 2868 616.712 C 3187 616.712 3505 595.288 3824 595.288" transform="matrix(1,0,0,1,-451.23199462890625,0)" style="fill:none;stroke:rgb(254, 1, 103);transform:matrix(1, 0, 0, 1, -451.232, 0);;animation:none"></path></g>
<g transform="matrix(-1,1.2246467991473532e-16,-1.2246467991473532e-16,-1,1912,961.9999999999999)" style="transform:matrix(-1, 0, 0, -1, 1912, 962);;animation:none"><path stroke-width="2" stroke-opacity="0" stroke="rgb(255, 0, 102)" fill="none" d="M 0 598.335 C 319 598.335 637 613.666 956 613.666 C 1275 613.666 1593 598.335 1912 598.335 C 2231 598.335 2549 613.666 2868 613.666 C 3187 613.666 3505 598.335 3824 598.335" transform="matrix(1,0,0,1,-458.8800048828125,0)" style="fill:none;stroke:rgb(255, 0, 102);transform:matrix(1, 0, 0, 1, -458.88, 0);;animation:none"></path></g>
<g transform="matrix(-0.9986295347545738,-0.052335956242943564,0.052335956242943564,-0.9986295347545738,1885.5162402725168,1011.373980385204)" style="transform:matrix(-0.99863, -0.052336, 0.052336, -0.99863, 1885.52, 1011.37);;animation:none"><path stroke-width="2" stroke-opacity="0.01694915254237288" stroke="rgb(255, 0, 102)" fill="none" d="M 0 601.395 C 319 601.395 637 610.605 956 610.605 C 1275 610.605 1593 601.395 1912 601.395 C 2231 601.395 2549 610.605 2868 610.605 C 3187 610.605 3505 601.395 3824 601.395" transform="matrix(1,0,0,1,-466.52801513671875,0)" style="fill:none;stroke:rgb(255, 0, 102);transform:matrix(1, 0, 0, 1, -466.528, 0);;animation:none"></path></g>
<g transform="matrix(-0.9945218953682733,-0.1045284632676535,0.1045284632676535,-0.9945218953682733,1856.484741140328,1059.2942425560163)" style="transform:matrix(-0.994522, -0.104528, 0.104528, -0.994522, 1856.48, 1059.29);;animation:none"><path stroke-width="2" stroke-opacity="0.03389830508474576" stroke="rgb(255, 0, 102)" fill="none" d="M 0 604.464 C 319 604.464 637 607.536 956 607.536 C 1275 607.536 1593 604.464 1912 604.464 C 2231 604.464 2549 607.536 2868 607.536 C 3187 607.536 3505 604.464 3824 604.464" transform="matrix(1,0,0,1,-474.1759948730469,0)" style="fill:none;stroke:rgb(255, 0, 102);transform:matrix(1, 0, 0, 1, -474.176, 0);;animation:none"></path></g>
<g transform="matrix(-0.9876883405951378,-0.15643446504023073,0.15643446504023073,-0.9876883405951378,1824.9850759246008,1105.629440404722)" style="transform:matrix(-0.987688, -0.156434, 0.156434, -0.987688, 1824.99, 1105.63);;animation:none"><path stroke-width="2" stroke-opacity="0.05084745762711865" stroke="rgb(255, 0, 102)" fill="none" d="M 0 607.536 C 319 607.536 637 604.464 956 604.464 C 1275 604.464 1593 607.536 1912 607.536 C 2231 607.536 2549 604.464 2868 604.464 C 3187 604.464 3505 607.536 3824 607.536" transform="matrix(1,0,0,1,-481.8240051269531,0)" style="fill:none;stroke:rgb(255, 0, 102);transform:matrix(1, 0, 0, 1, -481.824, 0);;animation:none"></path></g>
<g transform="matrix(-0.9781476007338056,-0.2079116908177595,0.2079116908177595,-0.9781476007338056,1791.1035830181759,1150.2525723747385)" style="transform:matrix(-0.978148, -0.207912, 0.207912, -0.978148, 1791.1, 1150.25);;animation:none"><path stroke-width="2" stroke-opacity="0.06779661016949153" stroke="rgb(255, 0, 102)" fill="none" d="M 0 610.605 C 319 610.605 637 601.395 956 601.395 C 1275 601.395 1593 610.605 1912 610.605 C 2231 610.605 2549 601.395 2868 601.395 C 3187 601.395 3505 610.605 3824 610.605" transform="matrix(1,0,0,1,-489.4720153808594,0)" style="fill:none;stroke:rgb(255, 0, 102);transform:matrix(1, 0, 0, 1, -489.472, 0);;animation:none"></path></g>
<g transform="matrix(-0.9659258262890683,-0.2588190451025208,0.2588190451025208,-0.9659258262890683,1754.9331292380368,1193.0413295630517)" style="transform:matrix(-0.965926, -0.258819, 0.258819, -0.965926, 1754.93, 1193.04);;animation:none"><path stroke-width="2" stroke-opacity="0.0847457627118644" stroke="rgb(255, 0, 102)" fill="none" d="M 0 613.665 C 319 613.665 637 598.335 956 598.335 C 1275 598.335 1593 613.665 1912 613.665 C 2231 613.665 2549 598.335 2868 598.335 C 3187 598.335 3505 613.665 3824 613.665" transform="matrix(1,0,0,1,-497.1199951171875,0)" style="fill:none;stroke:rgb(255, 0, 102);transform:matrix(1, 0, 0, 1, -497.12, 0);;animation:none"></path></g>
<g transform="matrix(-0.9510565162951536,-0.3090169943749473,0.3090169943749473,-0.9510565162951536,1716.5728552838173,1233.8784309604184)" style="transform:matrix(-0.951057, -0.309017, 0.309017, -0.951057, 1716.57, 1233.88);;animation:none"><path stroke-width="2" stroke-opacity="0.1016949152542373" stroke="rgb(254, 1, 103)" fill="none" d="M 0 616.712 C 319 616.712 637 595.288 956 595.288 C 1275 595.288 1593 616.712 1912 616.712 C 2231 616.712 2549 595.288 2868 595.288 C 3187 595.288 3505 616.712 3824 616.712" transform="matrix(1,0,0,1,-504.76800537109375,0)" style="fill:none;stroke:rgb(254, 1, 103);transform:matrix(1, 0, 0, 1, -504.768, 0);;animation:none"></path></g>
<g transform="matrix(-0.9335804264972017,-0.35836794954530043,0.35836794954530043,-0.9335804264972017,1676.1279040000354,1272.6519449104612)" style="transform:matrix(-0.93358, -0.358368, 0.358368, -0.93358, 1676.13, 1272.65);;animation:none"><path stroke-width="2" stroke-opacity="0.11864406779661017" stroke="rgb(253, 2, 103)" fill="none" d="M 0 619.74 C 319 619.74 637 592.26 956 592.26 C 1275 592.26 1593 619.74 1912 619.74 C 2231 619.74 2549 592.26 2868 592.26 C 3187 592.26 3505 619.74 3824 619.74" transform="matrix(1,0,0,1,-512.416015625,0)" style="fill:none;stroke:rgb(253, 2, 103);transform:matrix(1, 0, 0, 1, -512.416, 0);;animation:none"></path></g>
<g transform="matrix(-0.9135454576426009,-0.4067366430758002,0.4067366430758002,-0.9135454576426009,1633.7091321868666,1309.255595906556)" style="transform:matrix(-0.913545, -0.406737, 0.406737, -0.913545, 1633.71, 1309.26);;animation:none"><path stroke-width="2" stroke-opacity="0.13559322033898305" stroke="rgb(253, 2, 104)" fill="none" d="M 0 622.743 C 319 622.743 637 589.257 956 589.257 C 1275 589.257 1593 622.743 1912 622.743 C 2231 622.743 2549 589.257 2868 589.257 C 3187 589.257 3505 622.743 3824 622.743" transform="matrix(1,0,0,1,-520.0640258789062,0)" style="fill:none;stroke:rgb(253, 2, 104);transform:matrix(1, 0, 0, 1, -520.064, 0);;animation:none"></path></g>
<g transform="matrix(-0.8910065241883679,-0.45399049973954664,0.45399049973954664,-0.8910065241883679,1589.432806749358,1343.5890558856115)" style="transform:matrix(-0.891007, -0.45399, 0.45399, -0.891007, 1589.43, 1343.59);;animation:none"><path stroke-width="2" stroke-opacity="0.15254237288135594" stroke="rgb(252, 3, 104)" fill="none" d="M 0 625.717 C 319 625.717 637 586.283 956 586.283 C 1275 586.283 1593 625.717 1912 625.717 C 2231 625.717 2549 586.283 2868 586.283 C 3187 586.283 3505 625.717 3824 625.717" transform="matrix(1,0,0,1,-527.7115478515625,0)" style="fill:none;stroke:rgb(252, 3, 104);transform:matrix(1, 0, 0, 1, -527.712, 0);;animation:none"></path></g>
<g transform="matrix(-0.8660254037844386,-0.5000000000000001,0.5000000000000001,-0.8660254037844386,1543.4202860179232,1375.558219220315)" style="transform:matrix(-0.866025, -0.5, 0.5, -0.866025, 1543.42, 1375.56);;animation:none"><path stroke-width="2" stroke-opacity="0.1694915254237288" stroke="rgb(251, 4, 105)" fill="none" d="M 0 628.657 C 319 628.657 637 583.344 956 583.344 C 1275 583.344 1593 628.657 1912 628.657 C 2231 628.657 2549 583.344 2868 583.344 C 3187 583.344 3505 628.657 3824 628.657" transform="matrix(1,0,0,1,-535.3599853515625,0)" style="fill:none;stroke:rgb(251, 4, 105);transform:matrix(1, 0, 0, 1, -535.36, 0);;animation:none"></path></g>
<g transform="matrix(-0.838670567945424,-0.5446390350150271,0.5446390350150271,-0.838670567945424,1495.7976871135972,1405.075460656115)" style="transform:matrix(-0.838671, -0.544639, 0.544639, -0.838671, 1495.8, 1405.08);;animation:none"><path stroke-width="2" stroke-opacity="0.1864406779661017" stroke="rgb(249, 6, 106)" fill="none" d="M 0 631.558 C 319 631.558 637 580.442 956 580.442 C 1275 580.442 1593 631.558 1912 631.558 C 2231 631.558 2549 580.442 2868 580.442 C 3187 580.442 3505 631.558 3824 631.558" transform="matrix(1,0,0,1,-543.0079956054688,0)" style="fill:none;stroke:rgb(249, 6, 106);transform:matrix(1, 0, 0, 1, -543.008, 0);;animation:none"></path></g>
<g transform="matrix(-0.8090169943749475,-0.587785252292473,0.587785252292473,-0.8090169943749475,1446.6955402697704,1432.0598754859539)" style="transform:matrix(-0.809017, -0.587785, 0.587785, -0.809017, 1446.7, 1432.06);;animation:none"><path stroke-width="2" stroke-opacity="0.2033898305084746" stroke="rgb(248, 7, 107)" fill="none" d="M 0 634.416 C 319 634.416 637 577.584 956 577.584 C 1275 577.584 1593 634.416 1912 634.416 C 2231 634.416 2549 577.584 2868 577.584 C 3187 577.584 3505 634.416 3824 634.416" transform="matrix(1,0,0,1,-550.656005859375,0)" style="fill:none;stroke:rgb(248, 7, 107);transform:matrix(1, 0, 0, 1, -550.656, 0);;animation:none"></path></g>
<g transform="matrix(-0.7771459614569708,-0.6293203910498376,0.6293203910498376,-0.7771459614569708,1396.248431057892,1456.4375013044478)" style="transform:matrix(-0.777146, -0.62932, 0.62932, -0.777146, 1396.25, 1456.44);;animation:none"><path stroke-width="2" stroke-opacity="0.22033898305084745" stroke="rgb(246, 9, 109)" fill="none" d="M 0 637.228 C 319 637.228 637 574.772 956 574.772 C 1275 574.772 1593 637.228 1912 637.228 C 2231 637.228 2549 574.772 2868 574.772 C 3187 574.772 3505 637.228 3824 637.228" transform="matrix(1,0,0,1,-558.3040161132812,0)" style="fill:none;stroke:rgb(246, 9, 109);transform:matrix(1, 0, 0, 1, -558.304, 0);;animation:none"></path></g>
<g transform="matrix(-0.7431448254773942,-0.6691306063588582,0.6691306063588582,-0.7431448254773942,1344.5946314977782,1478.1415207336952)" style="transform:matrix(-0.743145, -0.669131, 0.669131, -0.743145, 1344.59, 1478.14);;animation:none"><path stroke-width="2" stroke-opacity="0.23728813559322035" stroke="rgb(244, 11, 110)" fill="none" d="M 0 639.99 C 319 639.99 637 572.01 956 572.01 C 1275 572.01 1593 639.99 1912 639.99 C 2231 639.99 2549 572.01 2868 572.01 C 3187 572.01 3505 639.99 3824 639.99" transform="matrix(1,0,0,1,-565.9520263671875,0)" style="fill:none;stroke:rgb(244, 11, 110);transform:matrix(1, 0, 0, 1, -565.952, 0);;animation:none"></path></g>
<g transform="matrix(-0.7071067811865477,-0.7071067811865475,0.7071067811865475,-0.7071067811865477,1291.8757210636102,1497.1124445650687)" style="transform:matrix(-0.707107, -0.707107, 0.707107, -0.707107, 1291.88, 1497.11);;animation:none"><path stroke-width="2" stroke-opacity="0.2542372881355932" stroke="rgb(242, 13, 112)" fill="none" d="M 0 642.698 C 319 642.698 637 569.302 956 569.302 C 1275 569.302 1593 642.698 1912 642.698 C 2231 642.698 2549 569.302 2868 569.302 C 3187 569.302 3505 642.698 3824 642.698" transform="matrix(1,0,0,1,-573.6000366210938,0)" style="fill:none;stroke:rgb(242, 13, 112);transform:matrix(1, 0, 0, 1, -573.6, 0);;animation:none"></path></g>
<g transform="matrix(-0.6691306063588581,-0.7431448254773944,0.7431448254773944,-0.6691306063588581,1238.2361986244418,1513.2982748149998)" style="transform:matrix(-0.669131, -0.743145, 0.743145, -0.669131, 1238.24, 1513.3);;animation:none"><path stroke-width="2" stroke-opacity="0.2711864406779661" stroke="rgb(239, 16, 114)" fill="none" d="M 0 645.35 C 319 645.35 637 566.65 956 566.65 C 1275 566.65 1593 645.35 1912 645.35 C 2231 645.35 2549 566.65 2868 566.65 C 3187 566.65 3505 645.35 3824 645.35" transform="matrix(1,0,0,1,-581.2479858398438,0)" style="fill:none;stroke:rgb(239, 16, 114);transform:matrix(1, 0, 0, 1, -581.248, 0);;animation:none"></path></g>
<g transform="matrix(-0.6293203910498378,-0.7771459614569706,0.7771459614569706,-0.6293203910498378,1183.8230863828421,1526.6546472478358)" style="transform:matrix(-0.62932, -0.777146, 0.777146, -0.62932, 1183.82, 1526.65);;animation:none"><path stroke-width="2" stroke-opacity="0.288135593220339" stroke="rgb(237, 18, 116)" fill="none" d="M 0 647.944 C 319 647.944 637 564.056 956 564.056 C 1275 564.056 1593 647.944 1912 647.944 C 2231 647.944 2549 564.056 2868 564.056 C 3187 564.056 3505 647.944 3824 647.944" transform="matrix(1,0,0,1,-588.89599609375,0)" style="fill:none;stroke:rgb(237, 18, 116);transform:matrix(1, 0, 0, 1, -588.896, 0);;animation:none"></path></g>
<g transform="matrix(-0.5877852522924732,-0.8090169943749473,0.8090169943749473,-0.5877852522924732,1128.7855268972548,1537.1449529751294)" style="transform:matrix(-0.587785, -0.809017, 0.809017, -0.587785, 1128.79, 1537.14);;animation:none"><path stroke-width="2" stroke-opacity="0.3050847457627119" stroke="rgb(234, 21, 118)" fill="none" d="M 0 650.477 C 319 650.477 637 561.523 956 561.523 C 1275 561.523 1593 650.477 1912 650.477 C 2231 650.477 2549 561.523 2868 561.523 C 3187 561.523 3505 650.477 3824 650.477" transform="matrix(1,0,0,1,-596.5440063476562,0)" style="fill:none;stroke:rgb(234, 21, 118);transform:matrix(1, 0, 0, 1, -596.544, 0);;animation:none"></path></g>
<g transform="matrix(-0.544639035015027,-0.8386705679454242,0.8386705679454242,-0.544639035015027,1073.2743742926168,1544.7404387980534)" style="transform:matrix(-0.544639, -0.838671, 0.838671, -0.544639, 1073.27, 1544.74);;animation:none"><path stroke-width="2" stroke-opacity="0.3220338983050847" stroke="rgb(231, 24, 120)" fill="none" d="M 0 652.948 C 319 652.948 637 559.052 956 559.052 C 1275 559.052 1593 652.948 1912 652.948 C 2231 652.948 2549 559.052 2868 559.052 C 3187 559.052 3505 652.948 3824 652.948" transform="matrix(1,0,0,1,-604.1920166015625,0)" style="fill:none;stroke:rgb(231, 24, 120);transform:matrix(1, 0, 0, 1, -604.192, 0);;animation:none"></path></g>
<g transform="matrix(-0.5000000000000004,-0.8660254037844385,0.8660254037844385,-0.5000000000000004,1017.4417807796855,1549.4202860179234)" style="transform:matrix(-0.5, -0.866025, 0.866025, -0.5, 1017.44, 1549.42);;animation:none"><path stroke-width="2" stroke-opacity="0.3389830508474576" stroke="rgb(227, 28, 123)" fill="none" d="M 0 655.354 C 319 655.354 637 556.646 956 556.646 C 1275 556.646 1593 655.354 1912 655.354 C 2231 655.354 2549 556.646 2868 556.646 C 3187 556.646 3505 655.354 3824 655.354" transform="matrix(1,0,0,1,-611.8399658203125,0)" style="fill:none;stroke:rgb(227, 28, 123);transform:matrix(1, 0, 0, 1, -611.84, 0);;animation:none"></path></g>
<g transform="matrix(-0.4539904997395469,-0.8910065241883678,0.8910065241883678,-0.4539904997395469,961.440779616402,1551.1716674988018)" style="transform:matrix(-0.45399, -0.891007, 0.891007, -0.45399, 961.441, 1551.17);;animation:none"><path stroke-width="2" stroke-opacity="0.3559322033898305" stroke="rgb(223, 32, 126)" fill="none" d="M 0 657.695 C 319 657.695 637 554.305 956 554.305 C 1275 554.305 1593 657.695 1912 657.695 C 2231 657.695 2549 554.305 2868 554.305 C 3187 554.305 3505 657.695 3824 657.695" transform="matrix(1,0,0,1,-619.4879760742188,0)" style="fill:none;stroke:rgb(223, 32, 126);transform:matrix(1, 0, 0, 1, -619.488, 0);;animation:none"></path></g>
<g transform="matrix(-0.4067366430758001,-0.913545457642601,0.913545457642601,-0.4067366430758001,905.4248656543739,1549.9897828257863)" style="transform:matrix(-0.406737, -0.913545, 0.913545, -0.406737, 905.425, 1549.99);;animation:none"><path stroke-width="2" stroke-opacity="0.3728813559322034" stroke="rgb(219, 36, 129)" fill="none" d="M 0 659.97 C 319 659.97 637 552.03 956 552.03 C 1275 552.03 1593 659.97 1912 659.97 C 2231 659.97 2549 552.03 2868 552.03 C 3187 552.03 3505 659.97 3824 659.97" transform="matrix(1,0,0,1,-627.1360473632812,0)" style="fill:none;stroke:rgb(219, 36, 129);transform:matrix(1, 0, 0, 1, -627.136, 0);;animation:none"></path></g>
<g transform="matrix(-0.3583679495453007,-0.9335804264972016,0.9335804264972016,-0.3583679495453007,849.5475746201535,1545.8778714626144)" style="transform:matrix(-0.358368, -0.93358, 0.93358, -0.358368, 849.548, 1545.88);;animation:none"><path stroke-width="2" stroke-opacity="0.3898305084745763" stroke="rgb(215, 40, 132)" fill="none" d="M 0 662.177 C 319 662.177 637 549.823 956 549.823 C 1275 549.823 1593 662.177 1912 662.177 C 2231 662.177 2549 549.823 2868 549.823 C 3187 549.823 3505 662.177 3824 662.177" transform="matrix(1,0,0,1,-634.7839965820312,0)" style="fill:none;stroke:rgb(215, 40, 132);transform:matrix(1, 0, 0, 1, -634.784, 0);;animation:none"></path></g>
<g transform="matrix(-0.30901699437494756,-0.9510565162951535,0.9510565162951535,-0.30901699437494756,793.962062284481,1538.8472038725165)" style="transform:matrix(-0.309017, -0.951057, 0.951057, -0.309017, 793.962, 1538.85);;animation:none"><path stroke-width="2" stroke-opacity="0.4067796610169492" stroke="rgb(210, 45, 135)" fill="none" d="M 0 664.318 C 319 664.318 637 547.682 956 547.682 C 1275 547.682 1593 664.318 1912 664.318 C 2231 664.318 2549 547.682 2868 547.682 C 3187 547.682 3505 664.318 3824 664.318" transform="matrix(1,0,0,1,-642.4320068359375,0)" style="fill:none;stroke:rgb(210, 45, 135);transform:matrix(1, 0, 0, 1, -642.432, 0);;animation:none"></path></g>
<g transform="matrix(-0.25881904510252063,-0.9659258262890683,0.9659258262890683,-0.25881904510252063,738.8206846729679,1528.9170506266619)" style="transform:matrix(-0.258819, -0.965926, 0.965926, -0.258819, 738.821, 1528.92);;animation:none"><path stroke-width="2" stroke-opacity="0.423728813559322" stroke="rgb(205, 50, 139)" fill="none" d="M 0 666.39 C 319 666.39 637 545.61 956 545.61 C 1275 545.61 1593 666.39 1912 666.39 C 2231 666.39 2549 545.61 2868 545.61 C 3187 545.61 3505 666.39 3824 666.39" transform="matrix(1,0,0,1,-650.0800170898438,0)" style="fill:none;stroke:rgb(205, 50, 139);transform:matrix(1, 0, 0, 1, -650.08, 0);;animation:none"></path></g>
<g transform="matrix(-0.2079116908177598,-0.9781476007338056,0.9781476007338056,-0.2079116908177598,684.2745804688179,1516.1146295848607)" style="transform:matrix(-0.207912, -0.978148, 0.978148, -0.207912, 684.275, 1516.11);;animation:none"><path stroke-width="2" stroke-opacity="0.4406779661016949" stroke="rgb(200, 55, 143)" fill="none" d="M 0 668.395 C 319 668.395 637 543.605 956 543.605 C 1275 543.605 1593 668.395 1912 668.395 C 2231 668.395 2549 543.605 2868 543.605 C 3187 543.605 3505 668.395 3824 668.395" transform="matrix(1,0,0,1,-657.72802734375,0)" style="fill:none;stroke:rgb(200, 55, 143);transform:matrix(1, 0, 0, 1, -657.728, 0);;animation:none"></path></g>
<g transform="matrix(-0.15643446504023104,-0.9876883405951377,0.9876883405951377,-0.15643446504023104,630.4732567521996,1500.475031293303)" style="transform:matrix(-0.156434, -0.987688, 0.987688, -0.156434, 630.473, 1500.48);;animation:none"><path stroke-width="2" stroke-opacity="0.4576271186440678" stroke="rgb(195, 60, 147)" fill="none" d="M 0 670.332 C 319 670.332 637 541.668 956 541.668 C 1275 541.668 1593 670.332 1912 670.332 C 2231 670.332 2549 541.668 2868 541.668 C 3187 541.668 3505 670.332 3824 670.332" transform="matrix(1,0,0,1,-665.3759765625,0)" style="fill:none;stroke:rgb(195, 60, 147);transform:matrix(1, 0, 0, 1, -665.376, 0);;animation:none"></path></g>
<g transform="matrix(-0.10452846326765336,-0.9945218953682734,0.9945218953682734,-0.10452846326765336,577.5641792117372,1482.0411228038106)" style="transform:matrix(-0.104528, -0.994522, 0.994522, -0.104528, 577.564, 1482.04);;animation:none"><path stroke-width="2" stroke-opacity="0.4745762711864407" stroke="rgb(189, 66, 151)" fill="none" d="M 0 672.201 C 319 672.201 637 539.799 956 539.799 C 1275 539.799 1593 672.201 1912 672.201 C 2231 672.201 2549 539.799 2868 539.799 C 3187 539.799 3505 672.201 3824 672.201" transform="matrix(1,0,0,1,-673.0239868164062,0)" style="fill:none;stroke:rgb(189, 66, 151);transform:matrix(1, 0, 0, 1, -673.024, 0);;animation:none"></path></g>
<g transform="matrix(-0.052335956242944306,-0.9986295347545738,0.9986295347545738,-0.052335956242944306,525.6923679513047,1460.8634301782288)" style="transform:matrix(-0.052336, -0.99863, 0.99863, -0.052336, 525.692, 1460.86);;animation:none"><path stroke-width="2" stroke-opacity="0.4915254237288136" stroke="rgb(183, 72, 156)" fill="none" d="M 0 674.004 C 319 674.004 637 537.996 956 537.996 C 1275 537.996 1593 674.004 1912 674.004 C 2231 674.004 2549 537.996 2868 537.996 C 3187 537.996 3505 674.004 3824 674.004" transform="matrix(1,0,0,1,-680.6719970703125,0)" style="fill:none;stroke:rgb(183, 72, 156);transform:matrix(1, 0, 0, 1, -680.672, 0);;animation:none"></path></g>
<g transform="matrix(-1.8369701987210297e-16,-1,1,-1.8369701987210297e-16,475.00000000000017,1437)" style="transform:matrix(0, -1, 1, 0, 475, 1437);;animation:none"><path stroke-width="2" stroke-opacity="0.5084745762711864" stroke="rgb(177, 78, 160)" fill="none" d="M 0 675.74 C 319 675.74 637 536.26 956 536.26 C 1275 536.26 1593 675.74 1912 675.74 C 2231 675.74 2549 536.26 2868 536.26 C 3187 536.26 3505 675.74 3824 675.74" transform="matrix(1,0,0,1,-688.3200073242188,0)" style="fill:none;stroke:rgb(177, 78, 160);transform:matrix(1, 0, 0, 1, -688.32, 0);;animation:none"></path></g>
<g transform="matrix(0.052335956242943946,-0.9986295347545738,0.9986295347545738,0.052335956242943946,425.6260196147956,1410.5162402725164)" style="transform:matrix(0.052336, -0.99863, 0.99863, 0.052336, 425.626, 1410.52);;animation:none"><path stroke-width="2" stroke-opacity="0.5254237288135594" stroke="rgb(171, 84, 165)" fill="none" d="M 0 677.41 C 319 677.41 637 534.59 956 534.59 C 1275 534.59 1593 677.41 1912 677.41 C 2231 677.41 2549 534.59 2868 534.59 C 3187 534.59 3505 677.41 3824 677.41" transform="matrix(1,0,0,1,-695.9679565429688,0)" style="fill:none;stroke:rgb(171, 84, 165);transform:matrix(1, 0, 0, 1, -695.968, 0);;animation:none"></path></g>
<g transform="matrix(0.10452846326765299,-0.9945218953682734,0.9945218953682734,0.10452846326765299,377.7057574439842,1381.4847411403284)" style="transform:matrix(0.104528, -0.994522, 0.994522, 0.104528, 377.706, 1381.48);;animation:none"><path stroke-width="2" stroke-opacity="0.5423728813559322" stroke="rgb(164, 91, 170)" fill="none" d="M 0 679.014 C 319 679.014 637 532.986 956 532.986 C 1275 532.986 1593 679.014 1912 679.014 C 2231 679.014 2549 532.986 2868 532.986 C 3187 532.986 3505 679.014 3824 679.014" transform="matrix(1,0,0,1,-703.6160278320312,0)" style="fill:none;stroke:rgb(164, 91, 170);transform:matrix(1, 0, 0, 1, -703.616, 0);;animation:none"></path></g>
<g transform="matrix(0.15643446504023067,-0.9876883405951378,0.9876883405951378,0.15643446504023067,331.3705595952782,1349.9850759246008)" style="transform:matrix(0.156434, -0.987688, 0.987688, 0.156434, 331.371, 1349.99);;animation:none"><path stroke-width="2" stroke-opacity="0.559322033898305" stroke="rgb(158, 97, 175)" fill="none" d="M 0 680.555 C 319 680.555 637 531.445 956 531.445 C 1275 531.445 1593 680.555 1912 680.555 C 2231 680.555 2549 531.445 2868 531.445 C 3187 531.445 3505 680.555 3824 680.555" transform="matrix(1,0,0,1,-711.2640380859375,0)" style="fill:none;stroke:rgb(158, 97, 175);transform:matrix(1, 0, 0, 1, -711.264, 0);;animation:none"></path></g>
<g transform="matrix(0.20791169081775943,-0.9781476007338056,0.9781476007338056,0.20791169081775943,286.7474276252615,1316.1035830181759)" style="transform:matrix(0.207912, -0.978148, 0.978148, 0.207912, 286.747, 1316.1);;animation:none"><path stroke-width="2" stroke-opacity="0.576271186440678" stroke="rgb(151, 104, 180)" fill="none" d="M 0 682.032 C 319 682.032 637 529.968 956 529.968 C 1275 529.968 1593 682.032 1912 682.032 C 2231 682.032 2549 529.968 2868 529.968 C 3187 529.968 3505 682.032 3824 682.032" transform="matrix(1,0,0,1,-718.9119873046875,0)" style="fill:none;stroke:rgb(151, 104, 180);transform:matrix(1, 0, 0, 1, -718.912, 0);;animation:none"></path></g>
<g transform="matrix(0.2588190451025203,-0.9659258262890684,0.9659258262890684,0.2588190451025203,243.95867043694875,1279.933129238037)" style="transform:matrix(0.258819, -0.965926, 0.965926, 0.258819, 243.959, 1279.93);;animation:none"><path stroke-width="2" stroke-opacity="0.5932203389830508" stroke="rgb(145, 110, 185)" fill="none" d="M 0 683.447 C 319 683.447 637 528.553 956 528.553 C 1275 528.553 1593 683.447 1912 683.447 C 2231 683.447 2549 528.553 2868 528.553 C 3187 528.553 3505 683.447 3824 683.447" transform="matrix(1,0,0,1,-726.5599975585938,0)" style="fill:none;stroke:rgb(145, 110, 185);transform:matrix(1, 0, 0, 1, -726.56, 0);;animation:none"></path></g>
<g transform="matrix(0.30901699437494723,-0.9510565162951536,0.9510565162951536,0.30901699437494723,203.12156903958157,1241.5728552838173)" style="transform:matrix(0.309017, -0.951057, 0.951057, 0.309017, 203.122, 1241.57);;animation:none"><path stroke-width="2" stroke-opacity="0.6101694915254238" stroke="rgb(138, 117, 189)" fill="none" d="M 0 684.8 C 319 684.8 637 527.2 956 527.2 C 1275 527.2 1593 684.8 1912 684.8 C 2231 684.8 2549 527.2 2868 527.2 C 3187 527.2 3505 684.8 3824 684.8" transform="matrix(1,0,0,1,-734.2080078125,0)" style="fill:none;stroke:rgb(138, 117, 189);transform:matrix(1, 0, 0, 1, -734.208, 0);;animation:none"></path></g>
<g transform="matrix(0.3583679495453004,-0.9335804264972017,0.9335804264972017,0.3583679495453004,164.34805508953878,1201.1279040000354)" style="transform:matrix(0.358368, -0.93358, 0.93358, 0.358368, 164.348, 1201.13);;animation:none"><path stroke-width="2" stroke-opacity="0.6271186440677966" stroke="rgb(132, 123, 194)" fill="none" d="M 0 686.092 C 319 686.092 637 525.908 956 525.908 C 1275 525.908 1593 686.092 1912 686.092 C 2231 686.092 2549 525.908 2868 525.908 C 3187 525.908 3505 686.092 3824 686.092" transform="matrix(1,0,0,1,-741.8560180664062,0)" style="fill:none;stroke:rgb(132, 123, 194);transform:matrix(1, 0, 0, 1, -741.856, 0);;animation:none"></path></g>
<g transform="matrix(0.40673664307579976,-0.9135454576426011,0.9135454576426011,0.40673664307579976,127.74440409344425,1158.709132186867)" style="transform:matrix(0.406737, -0.913545, 0.913545, 0.406737, 127.744, 1158.71);;animation:none"><path stroke-width="2" stroke-opacity="0.6440677966101694" stroke="rgb(126, 129, 199)" fill="none" d="M 0 687.325 C 319 687.325 637 524.675 956 524.675 C 1275 524.675 1593 687.325 1912 687.325 C 2231 687.325 2549 524.675 2868 524.675 C 3187 524.675 3505 687.325 3824 687.325" transform="matrix(1,0,0,1,-749.5039672851562,0)" style="fill:none;stroke:rgb(126, 129, 199);transform:matrix(1, 0, 0, 1, -749.504, 0);;animation:none"></path></g>
<g transform="matrix(0.45399049973954664,-0.891006524188368,0.891006524188368,0.45399049973954664,93.41094411438849,1114.432806749358)" style="transform:matrix(0.45399, -0.891007, 0.891007, 0.45399, 93.4109, 1114.43);;animation:none"><path stroke-width="2" stroke-opacity="0.6610169491525424" stroke="rgb(120, 135, 203)" fill="none" d="M 0 688.5 C 319 688.5 637 523.5 956 523.5 C 1275 523.5 1593 688.5 1912 688.5 C 2231 688.5 2549 523.5 2868 523.5 C 3187 523.5 3505 688.5 3824 688.5" transform="matrix(1,0,0,1,-757.1519775390625,0)" style="fill:none;stroke:rgb(120, 135, 203);transform:matrix(1, 0, 0, 1, -757.152, 0);;animation:none"></path></g>
<g></g></g><!-- [ldio] generated by https://loading.io --></svg>