<svg xmlns="http://www.w3.org/2000/svg" viewBox="0 0 1920 2000" preserveAspectRatio="xMidYMid" width="1920" height="2000" xmlns:xlink="http://www.w3.org/1999/xlink" style="shape-rendering:auto;display:block;background-position-x:0%;background-position-y:0%;background-size:auto;background-origin:padding-box;background-clip:border-box;background:scroll rgb(12, 16, 34) none  repeat;width:1920px;height:2000px;;animation:none"><g><linearGradient y2="0" y1="0" x2="1" x1="0" id="lg-ca780xlr0a"><stop offset="0" stop-color="#ff0066"></stop>

  
<stop offset="1" stop-color="#33ccff"></stop></linearGradient>
<path opacity="0.4" fill="url(#lg-ca780xlr0a)" d="M 0 0 L 0 696.76 Q 192 821.17 384 778.05 T 768 802.08 T 1152 952.73 T 1536 627.26 T 1920 631.74 L 1920 0 Z" style="fill:url('#lg-ca780xlr0a');opacity:0.4;;animation:none"></path>
<path opacity="0.4" fill="url(#lg-ca780xlr0a)" d="M 0 0 L 0 841.969 Q 192 809.104 384 787.442 T 768 857.756 T 1152 685.851 T 1536 889.683 T 1920 885.399 L 1920 0 Z" style="fill:url('#lg-ca780xlr0a');opacity:0.4;;animation:none"></path>
<path opacity="0.4" fill="url(#lg-ca780xlr0a)" d="M 0 0 L 0 959.796 Q 192 750.623 384 713.873 T 768 685.986 T 1152 808.572 T 1536 870.86 T 1920 912.49 L 1920 0 Z" style="fill:url('#lg-ca780xlr0a');opacity:0.4;;animation:none"></path>
<path opacity="0.4" fill="url(#lg-ca780xlr0a)" d="M 0 0 L 0 704.306 Q 192 797.689 384 753.483 T 768 802.184 T 1152 772.411 T 1536 849.086 T 1920 642.28 L 1920 0 Z" style="fill:url('#lg-ca780xlr0a');opacity:0.4;;animation:none"></path>
<path opacity="0.4" fill="url(#lg-ca780xlr0a)" d="M 0 0 L 0 707.817 Q 192 919.121 384 889.086 T 768 827.753 T 1152 680.211 T 1536 821.36 T 1920 810.374 L 1920 0 Z" style="fill:url('#lg-ca780xlr0a');opacity:0.4;;animation:none"></path>
<g></g></g><!-- [ldio] generated by https://loading.io --></svg>